<svg id="Layer_1" data-name="Layer 1" xmlns="http://www.w3.org/2000/svg" xmlns:xlink="http://www.w3.org/1999/xlink" viewBox="0 0 465 561"><defs><style>.cls-1{fill:none;}.cls-2{clip-path:url(#clip-path);}.cls-3{fill:#f7b9b7;stroke:#000;stroke-miterlimit:10;stroke-width:2px;}.cls-4{fill:#fff;}.cls-4,.cls-5{fill-rule:evenodd;}</style><clipPath id="clip-path"><rect class="cls-1" x="-2014" y="-2456.56" width="3839.22" height="2159.56"/></clipPath></defs><rect x="64.29" y="64.91" width="347.78" height="442.53" rx="71.05"/><path class="cls-3" d="M124,53.57H329.67a71,71,0,0,1,71,71V432.79a61.5,61.5,0,0,1-61.5,61.5H124a71,71,0,0,1-71-71V124.61A71,71,0,0,1,124,53.57Z"/><g id="body_mono_Turtleneck" data-name="body/mono/Turtleneck"><path id="_-Background" data-name="ðŸŽ¨-Background" class="cls-4" d="M174.13,290.67c15.59-3.57,24.83-3.57,30.06-9.09s6.17-15,8.34-22.31c1.2-4,12.91-7.7,24.27-7.12,9.26.46,18.58,4.52,19.31,7.12,1.6,5.77,4.18,30.51,12.67,34.31s26.6.33,31.78,9.41,22.2,46.06,22.2,54.68q0,8.63-166.33,6Q158.56,294.23,174.13,290.67Z"/><path id="_-Ink" data-name="ðŸ–-Ink" class="cls-5" d="M106.21,491.44c.24.17.05.18,0,0m-.92-.72a.1.1,0,0,0,0,0c-.19,0-.3-.21,0,0m246.15-22.85q-1.57-7-3.13-13.92-3.27-14.54-6.55-29.1L329,367.93c-2.17-9.64-4.65-19.21-6.89-28.84-2-8.43-3.58-17.07-6.94-25.06-3.43-8.15-9.46-15-17.45-18.42a63.47,63.47,0,0,0-21.62-4.88,3.19,3.19,0,0,0-.2-4.32c-1.67-1.75-2-4.35-2.45-6.67a22.69,22.69,0,0,0-3.07-8.44,2.66,2.66,0,0,0-2.93-1.23c-.73.17-1.46.37-2.18.59a5.4,5.4,0,0,1-.66-.81,9.56,9.56,0,0,0-1.4-2.33,1.21,1.21,0,0,0-1.46-.19c-1.38.73-1.5,2.94-1.2,4.3a6.94,6.94,0,0,0,.22.78l-.29.14h0c-1.81-.36-4.12.4-5.89.58-2,.21-4.11.35-6.16.42a92,92,0,0,1-12.64-.43c-4.09-.42-8.15-1.1-12.19-1.87-2.52-.48-5.59-.87-7.8-2.44,0-.79-.05-1.57-.06-2.36a6.86,6.86,0,0,0-.66-3.62s0,0-.05,0a4.66,4.66,0,0,0-1.93,2.21,3.76,3.76,0,0,0-2.5.14,8,8,0,0,0-2.75,1.88,8.43,8.43,0,0,0-2,4.53,10,10,0,0,1-.91,3c-.1.17-.21.36-.33.53l-.26.29-.42.42c-.08.08-.48.42-.42.38a14.91,14.91,0,0,1-5.44,2.48c-4.61,1.38-9.33,2.28-13.92,3.74a128.54,128.54,0,0,0-14.72,5.75C150.72,296.72,134,310.31,122.62,328c-13.26,20.61-18.14,45.65-20.56,69.92-2.65,26.6-2.46,53.51-3,80.22l-.22,10c-.07,3.27-.27,6.78,2.53,9,2.48,2,5.51,1.35,8.27.47a69.84,69.84,0,0,1,9-2.23,64.42,64.42,0,0,1,17.43-.54c3.11.32,6.91,1.52,9.46-1a8.4,8.4,0,0,0,1.88-3.28c.54-1.49,1.17-3,1.79-4.43.52-1.21,1-2.42,1.55-3.64l2.49,11.37a1.64,1.64,0,0,0,2.74.88c1.47.82,3.41.8,5.09,1,2.7.33,5.42.44,8.13.53,5.31.19,10.62.3,15.94.37,10.83.14,21.67.09,32.5,0,21.46-.1,42.92-.55,64.37-1.13l18.12-.46,9.06-.24a13.17,13.17,0,0,0,2.67-.32h0a3.55,3.55,0,0,0,1.42.77,3.79,3.79,0,0,0,4.6-2.71,7.14,7.14,0,0,0,.4-2.67c.1-.67.21-1.35.31-2a18.13,18.13,0,0,0,11.33,2.52c4.49-.31,9-1.16,13.42-1.79,4.18-.6,10.95-.41,11.15-6.4.08-2.19-.82-4.65-1.29-6.77l-1.71-7.59"/></g><g id="head_mono_Long-Bangs" data-name="head mono Long-Bangs"><path id="_-Background-2" data-name=" -Background-2" class="cls-4" d="M305,146.61c-3.67-13.29-17.76-19.05-30.36-19.94-34.23-3.57-69.06,15.48-84.24,46.44-12.11,23.51-12.5,48.22,13.59,61.62,1.39.79,2.88,1.59,4.47,2.38a34.43,34.43,0,0,0,4.16,3.37c14.19,9.33,31.66,13.4,48.63,12.51,25-.5,33.93-17.47,39.39-39.2,5.65-21.53,8.83-45,4.36-67.18Z"/><path id="_-Ink-2" data-name=" -Ink-2" class="cls-5" d="M321.33,271.64c-1.19-3.57-2.58-6.95-4-10.42a29.85,29.85,0,0,1-.5-5.26c-.2-6.25,1-12.6,2.28-18.65,2.68-12.41,5.46-24.61,6.95-37.21,2.58-22.53,1-46-9.23-66.58-8.93-17.86-23.91-32.45-43.36-37.91a88.77,88.77,0,0,0-17.66-2.87l-2.19-.3a111.61,111.61,0,0,0-25.1-1.29C214.66,92,200.87,96,189.36,104a58.76,58.76,0,0,0-23.82,32.74c-4,14.19-3.67,29.47-10.62,42.77-2.08,3.87-4.46,7.64-6.74,11.41-6.06,6.75-12.6,14.19-14,23.52-1.79,11.41,4.86,21.13,11,30.06,5.66,8,13.3,19.25,7.44,29.17-2.78,4.67-7.14,8.24-10.42,12.51a42.37,42.37,0,0,0-7.44,15A31.8,31.8,0,0,0,141.53,330a34.33,34.33,0,0,0,13.2,9c5.16,2.19,10.12,4.27,14.38,8a46.17,46.17,0,0,1,5.36,5.56,40.49,40.49,0,0,0,5.46,6.84c2.28,2.29,6.65-.89,4.56-3.57-.19-.2-.29-.39-.49-.59-1.49-2-3.08-4-4.67-5.86a32.75,32.75,0,0,1-4.26-25.6,31,31,0,0,1,2.58-6.55c.2.6.49,1.19.69,1.79a34.46,34.46,0,0,0,4.27,7.24,19.51,19.51,0,0,0,.79,4.67c2.78,9.42,12.31,14.09,20.74,17.66.81.37,1.64.7,2.48,1,2.18.89,4.57-2.28,3.18-4.17-.4-.49-.7-1-1.09-1.48a31.16,31.16,0,0,1-4.88-21c1.09-7.84,5.76-14.29,10.32-20.44s9.33-12.31,11.31-19.75c2.19-8.23.2-16.37-3.17-23.91-3.18-7-7.34-13.3-10.82-20,1.19,1.2,2.48,2.39,3.67,3.48a22.88,22.88,0,0,0,4.57,3.57,1.25,1.25,0,0,0,1.49-2,40.37,40.37,0,0,0-4.47-3.67c-1.39-1.19-2.78-2.38-4.07-3.67-1.58-1.59-3.17-3.17-4.66-4.86a77.87,77.87,0,0,1-3-9.33,50.23,50.23,0,0,1-2-13.29c.1-4.57,2.48-7.74,5.56-10.82,1.29-1.29,2.67-2.58,4.06-3.87a104.57,104.57,0,0,0,8.24-6.85c4.66-4.16,9.23-8.63,13.49-13.09,1.2-1.19,2.29-2.48,3.48-3.67,4-4.07,7.74-8.34,11.31-12.71a53,53,0,0,0,10.12-5l-4.17,4.17a84,84,0,0,1-9.92,8.83.38.38,0,0,0,.3.7h0a39.88,39.88,0,0,0,12.9-4.87,61.15,61.15,0,0,0,11-9.22,40.65,40.65,0,0,0,5.36-3.08c.1-.1.2-.1.3-.2-1.69,5.26-4.07,11.12-9.23,13-.2.1-.2.3,0,.3a15.91,15.91,0,0,0,10.62-5.06,65.32,65.32,0,0,0,6.35-5.16,76,76,0,0,0,5.55-5.66c-2.48,4.86-5.26,9.63-7.93,14.29-.1.3.19.6.39.4a45,45,0,0,0,13.6-14.79l1.48-2.68-1.19,4.17c-.79,2.48-1.58,5-2.28,7.54a26.71,26.71,0,0,1-1.49,4,10,10,0,0,0-1,2.88.11.11,0,0,0,.1.1h0c2.28-.6,4.37-3.18,6.05-4.76a36.86,36.86,0,0,0,2.58-2.88c.1,6,.2,12,.1,18-.2,11-1,22.13-1.88,33-.8,9.72-1.39,19.94-6.85,28.38-4.17,6.55-11,11.11-18.46,13.29a13.35,13.35,0,0,1-2,.5c-10.72,2.58-21.43-.3-30.86-5.46a2.54,2.54,0,0,0-2.58,4.37,47,47,0,0,0,34.93,5.75c-.4,13.7,6.45,26.8,13.1,38.4,3.77,6.55,7.54,13,10.22,20.05a67.13,67.13,0,0,1,4.26,18.65,101.45,101.45,0,0,1-1.09,22.63c-.1.39-.1.79-.2,1.19-.2,1.58,1.19,3,2.78,2.08,6.95-3.67,9.92-11.41,11.71-18.55a131.27,131.27,0,0,0,3.47-20.44,73.22,73.22,0,0,1,2.29,7.93,4.84,4.84,0,0,1,.19,1.19c.5,2.29,3.87,2.09,4.47,0l.3-1.19a95.28,95.28,0,0,0,2.08-35.12,60.1,60.1,0,0,0-3.37-18.26"/></g><g id="head_mono_Medium-Bangs-3" data-name="head mono Medium-Bangs-3"><path id="_-Background-3" data-name=" -Background-3" class="cls-4" d="M251.57,104.64c19.75,0,44.45,22.53,51.7,32.05,6.05,8,5.26,49.52,5.26,74.12,0,5.16-2.29,14.89-3.18,19.85-3.07,18.06-16.57,33.14-43.26,33.14-21.73,0-38.4-6.85-54.58-24.51-3.67-4-21.73,10.32-25.4,5.16-9.62,0-17.66-89.9,1.19-116.89S231.82,104.64,251.57,104.64Z"/><path id="_-Ink-3" data-name=" -Ink-3" class="cls-5" d="M192.23,111c11.41-10.42,26.6-15.38,41.88-15a77.61,77.61,0,0,1,23.32,4.27,61.74,61.74,0,0,1,10.81,5,21.12,21.12,0,0,1,3.47,2.38l.3.2h0a23.5,23.5,0,0,1,8,5.26,35.46,35.46,0,0,1,14.39,1.58A34.28,34.28,0,0,1,311.21,126c5,6.25,6.54,13.89,6,21.83l-.1,1.29c-.6,6.94-1.59,15.87-7.34,20.44a4.18,4.18,0,0,1-1.39.79,81.14,81.14,0,0,1,8.53,20.34c6.85,27,1.59,55.17-6.75,81.17-.69,2.18-4,3.57-5.55,1.49-3-3.77-7.25-6.65-12-7.15-3-.3-5.95.3-8.73-1.09a7.8,7.8,0,0,1-3-2.48A38.14,38.14,0,0,1,266,265.09c-8.34-.3-17.17-3.17-22.92-9.53a3.37,3.37,0,0,1-.9-3.17,20.86,20.86,0,0,1,2.19-.6c7.24,4.27,15.28,7.15,23.81,7.35,5,.1,9.82-.6,13.79-3.67a17.11,17.11,0,0,0,2.39-2.19c8.43-5.45,14.38-14.58,17.16-24.41,2.58-9.13,2.28-18.75,1.39-28.18l-.5-5c-.69-7.24-1.29-14.58-1.48-21.93h.1c1.78-.1,1.78-2.87,0-2.78-4.67.3-9.23-.49-13.8-.09a23.37,23.37,0,0,0-.79-6.45c-.4-1.2-2.48-1.39-2.68,0a38.06,38.06,0,0,0-.4,5.75c-6.94-.1-13.79-.69-20.74-.4-1.29-1.39-1.68-3.77-2.28-5.45-.1-.2-.2-.5-.3-.7a35.81,35.81,0,0,1-2.28,7H256c-9.63,0-19.45.29-28.78,2.28a3.67,3.67,0,0,1-1.19-2.18,78,78,0,0,0-3.37-15.09l-.2-.69c0-.1,0-.1-.1-.2a36.11,36.11,0,0,1-4.47,5.76,29.68,29.68,0,0,1-3.07,3L211.78,167c0,.19.1.39.1.59a33.25,33.25,0,0,1-3.47,19.25l-.1.4a11.41,11.41,0,0,1-1.69,5,12.56,12.56,0,0,1,2.68,4.76c.5,1.59-1.79,3-2.88,1.69a12.65,12.65,0,0,0-3.07-2.58.37.37,0,0,1-.3.1c-3.08-1.69-8.44-1.19-11.51.4-3.87,2-5.36,6.15-5,10.41.39,4.07,2.18,8.74,5.55,10.82a5.13,5.13,0,0,0,4.47.6,5.49,5.49,0,0,0,1.49-.8l.3-.2a5.2,5.2,0,0,1,3.37-1.49,2.52,2.52,0,0,1,3.17,1.59v.1a6.55,6.55,0,0,1,.6,2.68,5.23,5.23,0,0,1-1.39,3.08l-.4.39c13.6,14.69,15.28,37.61,8.34,56-.29.81-.62,1.6-1,2.38-1.19,2.68-5.66,1.88-6.25-.8l-.6-2.38c-.4-1.49-.79-2.87-1.29-4.36l-.2-.5-1.19-3.57v-.1c0-.1,0-.1-.1-.2l-.69,1.59h0l-2.19,4.66c-1,2.19-4.16,1-4.26-1.09V274a39.84,39.84,0,0,0-1.39-8.33l-.3.39c-4.17,5.16-9.13,10-15.78,11.22-1.68.29-3.57-1.49-2.48-3.18.5-.69.9-1.39,1.39-2.18-.39-.2-.69-.4-1.09-.6a21.14,21.14,0,0,1-6.45-5.75c-3.77-5-5.06-11.12-5.36-17.17a58.24,58.24,0,0,1,2-19.35,52.56,52.56,0,0,1,3-7.74,1.4,1.4,0,0,1-.19-.69,106.15,106.15,0,0,1-6-33.64,108.05,108.05,0,0,1,7.15-40.39C174,133.22,181.72,120.52,192.23,111Zm-6.35,119.75a1.38,1.38,0,0,0-1.9-.44,1.4,1.4,0,0,0-.48,1.83v.1c1.49,2.38,2.18,5.06,3.08,7.64.59,1.68,3.27,1,2.68-.7l-.2-.59A34,34,0,0,0,185.88,230.74Zm8.24-28.38.59-.3c2-1,3.68-1.59,6.06-.79,3.17,1.09,6.45,4.56,4.36,8a3.26,3.26,0,0,1-3.57,1.48c-2.38-.49-3-2.67-4.27-4.46l-.19-.3c-.7-1.09-1.69-2.58-2.88-3-.31-.09-.5-.57-.1-.67Zm1.69-72.24.19-.19c1.39-1.2-.59-3.18-2-2-6.15,5.46-8.24,13.89-11.41,21.14-.7,1.58,1.69,3.07,2.38,1.38C188.07,143.62,190.05,135.38,195.81,130.12Zm73.62-2.38c-1.59-.69-3,1.59-1.49,2.38h.1c5.36,2.48,7.74,7.94,9.92,13.1.7,1.69,3.08.2,2.39-1.39l-.4-.89c-2.38-5.24-5.06-10.7-10.52-13.18Zm8.44-3.37c-1.69-.6-2.39,2.08-.7,2.68,4.57,1.59,7.74,5.06,10.42,8.93,1,1.49,3.37.1,2.38-1.39-3.17-4.45-6.85-8.32-12.1-10.2Z"/></g><g id="face_Smile-LOL" data-name="face Smile-LOL"><path id="_-Ink-4" data-name=" -Ink-4" class="cls-5" d="M271.12,211c-.8-.59-.2-2.38,1.49-2.08,15.08,2.58,7.24,28.48-11.91,14.29-2.28-1.89.5-6,3-4.37,2.68,2.09,8,6.55,11.8,2.58C278.56,217,274.09,212.8,271.12,211Zm-19.25-33.34c.89,1,1.19,2.78,0,3.67-2,1.59-4.27,1-6.65,1.1a23.73,23.73,0,0,0-5.85,1c-4.17,1.19-7.64,3.37-11.22,5.85a.49.49,0,0,1-.69-.17.49.49,0,0,1,0-.52,22.66,22.66,0,0,1,10.11-9.45,24.44,24.44,0,0,1,6.85-2.38l.69-.1c2.29-.5,5.17-.87,6.76,1Zm31.95-2.78.59.1c6.16,1.29,14.09,3.87,17,9.83.1.89,0,1-.1,1.19h0a1.11,1.11,0,0,1-.49.39c-.1,0-.2-.09-.3-.09a22.1,22.1,0,0,1-3.37-1.29l-1.1-.5c-1.29-.6-2.58-1.19-4-1.69a45.7,45.7,0,0,0-9-2,3.63,3.63,0,0,1-1.79-.7,3,3,0,0,1-1-1.49,2.63,2.63,0,0,1,.29-2.28,3.21,3.21,0,0,1,1.39-1.19,2.56,2.56,0,0,1,1.89-.3Z"/></g><path class="cls-5" d="M269.93,246.93a12.58,12.58,0,0,1-7.44,0,13.7,13.7,0,0,1-6.16-4,9,9,0,0,1-2.38-6,.87.87,0,0,1,.2-.6.7.7,0,0,1,.6-.29.84.84,0,0,1,.69.1.76.76,0,0,1,.4.39c.3.3.49.7.79,1,2,2.48,4,4.36,7.05,5.06a8.25,8.25,0,0,0,4.86-.4,11.46,11.46,0,0,0,4.27-3,2.18,2.18,0,0,1,1.68-.89,2.72,2.72,0,0,1,1.89.79,3.37,3.37,0,0,1,.89,1.89,3,3,0,0,1-.69,1.88A15.31,15.31,0,0,1,269.93,246.93Z"/><path class="cls-5" d="M246.41,198.91a3.64,3.64,0,0,0-3.37-.3,10,10,0,0,0-3.87,3.87,7.85,7.85,0,0,0-1.29,4.46,1.23,1.23,0,0,1-.3.9.91.91,0,0,1-.69.29,2.17,2.17,0,0,1-.8-.09,1.29,1.29,0,0,1-.79-.6,9.45,9.45,0,0,1,.49-6.95c1.29-3,3.58-5.55,5.06-6.35a8.21,8.21,0,0,1,8.14,0,14.31,14.31,0,0,1,4.86,5.16q.48.63.9,1.29a2.41,2.41,0,0,1,.39,2.39,3.26,3.26,0,0,1-1.68,1.78,2.85,2.85,0,0,1-2.39,0,2.66,2.66,0,0,1-1.58-1.69,8.17,8.17,0,0,0-3.08-4.16Z"/><path class="cls-5" d="M294.93,202.28a2.51,2.51,0,0,1-1.88.2,2.47,2.47,0,0,1-1.09-.7,2.3,2.3,0,0,1-.6-1.09,4.7,4.7,0,0,0-1.59-2.68,3.32,3.32,0,0,0-2.58-.69,5.06,5.06,0,0,0-2.78,1.69l-.59.89a4.41,4.41,0,0,1-1.19,1.49,1.14,1.14,0,0,1-.7.3h-.29a3.06,3.06,0,0,1-1.19-2.68,5,5,0,0,1,.89-2.48,9.35,9.35,0,0,1,5.16-3.68,7.66,7.66,0,0,1,6.05,1.29,9.16,9.16,0,0,1,3.57,5.36,2.87,2.87,0,0,1-.1,1.59A2.47,2.47,0,0,1,294.93,202.28Z"/></svg>