<svg id="Layer_1" data-name="Layer 1" xmlns="http://www.w3.org/2000/svg" xmlns:xlink="http://www.w3.org/1999/xlink" viewBox="0 0 465 561"><defs><style>.cls-1{fill:none;}.cls-2{clip-path:url(#clip-path);}.cls-3{fill:#ffaaa4;}.cls-4{fill:#f7b9b7;stroke:#000;stroke-miterlimit:10;stroke-width:2px;}.cls-5{fill:#fff;}.cls-5,.cls-6,.cls-7{fill-rule:evenodd;}.cls-7{fill:#d24427;}</style><clipPath id="clip-path"><rect class="cls-1" x="-2499" y="-2456.56" width="3839.22" height="2159.56"/></clipPath></defs><g class="cls-2"><circle class="cls-3" cx="1107.27" cy="-411.98" r="738.85"/></g><rect x="64.29" y="64.91" width="347.78" height="442.53" rx="71.05"/><path class="cls-4" d="M124,53.57H329.67a71,71,0,0,1,71,71V432.79a61.5,61.5,0,0,1-61.5,61.5H124a71,71,0,0,1-71-71V124.61A71,71,0,0,1,124,53.57Z"/><g id="body_mono_Tee-1" data-name="body/mono/Tee-1"><path id="_-Background" data-name="ðŸŽ¨-Background" class="cls-5" d="M342.21,441.91c-1.3-7.6-2.5-15.3-3.6-22.9-.5-3.6-1-7.3-1.5-10.9-.3-2.6-.8-5.5.9-7.3,2.4-2.7,4.5-5,4.8-8.8.3-3.6-.9-7.5-1.6-11-1.5-7.3-3.5-14.5-5.6-21.7s-4.5-14.4-6.9-21.7a197.08,197.08,0,0,0-7.3-19.9c-5.5-12.3-14.9-21.2-26.5-27.3-2.9-1.5-8.8-6.9-11.8-8-2.8-1.1-2.8,2.2-5.5.9a10.65,10.65,0,0,1-5.4-4.4c-1.3-2.4-4.6-5.7-5.2-8.4-1.1-5.8.1-10.7-3.9-15.2a28.88,28.88,0,0,0-13.3-7.9c-10.9-3.1-25.5-.9-32.1,9.5-3.1,5-4.2,11-8.5,15.2-3.7,3.6-2.9,6-7.7,7.8-.3.1-7.6-1.5-7.9-1.4-5.3-1.1-10.3,2.1-15.1,4a108.55,108.55,0,0,0-20.5,10.8,130.17,130.17,0,0,0-33.2,33,164.66,164.66,0,0,0-21.5,42.7c-1.2,3.7-2.4,7.4-3.3,11.2-.5,2.1-1.1,4.3-.5,6.5a7.73,7.73,0,0,0,3.2,4.1c1.9,1.4,5.8,2.4,5.7,5.3-.1,2.2-.8,4.5-1.1,6.7-.4,2.6-.8,5.2-1.1,7.8-1.6,11.9-2.8,23.7-3.3,35.7-.5,11.8-1,23.7-.2,35.5a7.27,7.27,0,0,0,.6,2.1c-.3.1-.4.8.1.8.3.1.6.1.9.2a4.23,4.23,0,0,0,2.3.8,10.87,10.87,0,0,1,1.8.1c6.3,1.3,12.5,2.6,18.9,3.6,7.7,1.1,15.5,2.2,23.2,2.9,16,1.7,31.8,1,47.8.2s31.9-1,47.9-.6,32,1.1,47.9,1.4a530.25,530.25,0,0,0,53.5-1.7,3.79,3.79,0,0,0,3.5-4.7C348.11,471.81,344.81,456.91,342.21,441.91Z"/><path id="_-Ink" data-name="ðŸ–-Ink" class="cls-6" d="M188.61,277.81a28.1,28.1,0,0,1,5,.4c.1,0,.2.2,0,.3-2.9.6-5.9,1.5-8.8,2.4l-1.2.4c-3.3,1-6.4,2.1-9.6,3.4a87.73,87.73,0,0,0-17.8,10.3c-21.2,15.8-36.6,39.8-46.2,64.6a183.41,183.41,0,0,0-6.7,20.6c-.4,1.8-.9,3.4-1.2,5.2-.1.5-.6,1.8-.3,2.3s1.2.7,1.6.9l1.5.8c2.9,1.5,7.7,4,8.2,4.3l.8.4c12.3,6.2,25.5,11.6,39.3,11.9l.1-1.2h0a115.22,115.22,0,0,1,3.2-20.1c.1-.3.5-.2.6.1,1,7.7.7,15.6.3,23.3-.6,13.8-1.4,27.5-2.1,41.4-.4,6.9-.8,13.8-1.2,20.6s-.6,13.9-1.5,20.8a2.91,2.91,0,0,1-3.3,2.2,3,3,0,0,1-2.6-3c0-4,.5-8,.7-12,.3-3.8.5-7.5.8-11.3,1-13.8,2.2-27.5,3.3-41.3.4-4.8.8-9.8,1.2-14.6-14.7-.5-28.4-6.1-41.5-12.7-.2,4.4-.6,8.9-1.1,13.3-1.2,12.3-2.3,24.7-3.1,37-.4,6.3-.7,12.5-1,18.8-.1,3.1-.2,6.2-.3,9.2,0,1-.1,2.1-.1,3.1V482a4.76,4.76,0,0,1-1.4,3.9,3,3,0,0,1-4.1,0c-1.6-1.5-1.3-3.7-1.3-5.8,0-1.8.1-3.5.1-5.3.1-3.5.3-7,.4-10.5.6-12.3,1.8-24.4,3.4-36.6l.6-4.7c1.2-8.8,2.4-17.6,5.1-26.1l-3-1.5c-1.8-.9-3.6-1.9-5.4-2.9a6,6,0,0,1-3-3.6c-.4-1.9.2-3.8.7-5.7V383c.4-1.9.9-3.6,1.4-5.4a199.17,199.17,0,0,1,7.2-21.4,177.61,177.61,0,0,1,22-39.2c8.1-10.8,17.6-20.5,28.8-27.9a76.89,76.89,0,0,1,17.5-8.6,51.06,51.06,0,0,1,14-2.7Zm29.3-22c2-2.2,5.9.1,4.9,3-2.2,6.8-5.7,13-11.3,17.4-5.2,4.2-11.4,6.9-18,6.3h-.1l.6.8c4.5,6.3,9.2,12.5,15,17.6,11.7,10.4,27.5,16.1,42.9,12.1,12.1-3.2,22.7-13,25.8-25.5a2.15,2.15,0,0,1-1.6.1c-2.5-.5-5-3.3-6.6-5.3a25.21,25.21,0,0,1-4.1-6.9c-1.8-4.7-2.4-10.7.1-15.3.3-.5,1-.2,1.1.3l.1.8c.5,4.2,1.1,8.4,3,12.3a31.14,31.14,0,0,0,3.5,5.4,27.18,27.18,0,0,0,2.4,2.4,25.6,25.6,0,0,1,2.6,2l.1.1h0c.2-1.7,1.3-2.5,2.5-2.4a6.71,6.71,0,0,1,2.9.8h0a110.46,110.46,0,0,1,21.1,14,86.4,86.4,0,0,1,28.7,43.2c2.4,8.5,3.8,17.2,5.3,25.9l.9,5.4c1.4,8,2.9,16.2,6,23.7.8,2,.2,3.7-1.8,4.5-2.4.9-4.9,1.9-7.4,2.8,1.2,5.4,1.9,10.8,2.9,16.3,1.9,11.4,4.3,22.8,6.3,34.1,1,5.9,2,11.7,3,17.5.5,2.8,1,5.6,1.5,8.5.3,1.5.5,3,.8,4.5v.2a7,7,0,0,1,.1,2.5,4.82,4.82,0,0,1-1.6,2.2,1.64,1.64,0,0,1-1.9.2l-.2-.1a3.6,3.6,0,0,1-2.4-2.4c-.2-.8-.3-1.8-.5-2.6-.3-1.7-.6-3.2-.9-4.8-.6-3.2-1.1-6.5-1.6-9.8l-.5-3.1c-1.7-10.5-3.3-21-4.2-31.7-.4-4.7-.8-9.4-1.1-14.1l-.3-3.5c-.4-4.4-.8-9.1-.9-13.5l-1.5.5h0l-7.2,2.6h0c-1.8.6-4,2-6,1.8a3.69,3.69,0,0,1-2.2-.9q1,14.4,2.7,28.8c1.1,8.7,2.3,17.4,3.7,26,.7,4.3,1.4,8.6,2.2,12.8.4,2.2.8,4.2,1.2,6.4.2,1,.5,2.2.6,3.2a3.66,3.66,0,0,1-.8,3,1.91,1.91,0,0,1-2.5.7,3.8,3.8,0,0,1-2.1-2.8c-.3-1.2-.5-2.6-.7-3.8-.4-2.4-.9-4.6-1.3-7-.9-5-1.7-9.8-2.4-14.8-2.5-17.4-4.1-35-4.9-52.5-.4-8.7-.5-17.3-.5-26,0-4.4.2-8.9.5-13.3s1-8.9,1.5-13.3c0-.2.2-.2.2,0,.3,5,.7,10,.9,15,.2,4.7.3,9.6.4,14.3q.3,9.45.9,18.9a2.94,2.94,0,0,1,2.8-1,28.53,28.53,0,0,0,4.6-1.7l5.4-1.9h0c2.9-1,5.7-2,8.6-2.9a225.1,225.1,0,0,1-5.8-27.1l-.7-4.1a193,193,0,0,0-5.1-24,77.69,77.69,0,0,0-11.3-22.9,125.38,125.38,0,0,0-17.1-18.6c-5.3-4.8-10.9-9.2-16.3-13.9a1.7,1.7,0,0,1,0,1,39.19,39.19,0,0,1-11.6,22.7c-12.3,12.1-30.4,14.5-46.1,8.9-15.2-5.5-28.6-18.4-33.3-34.5a.22.22,0,0,1,.4-.2c.3.4.5.7.8,1.1a.76.76,0,0,1,.2-.4,41.91,41.91,0,0,0,15.1-9.8,36.62,36.62,0,0,0,5.2-7.2,19.21,19.21,0,0,0,1.7-3.9l.1-.3C216.21,258.91,216.71,257.11,217.91,255.81Z"/></g><g id="head_mono_Long-Bangs" data-name="head mono Long-Bangs"><path id="_-Background-2" data-name=" -Background-2" class="cls-5" d="M303,138.81c-3.7-13.4-17.9-19.2-30.6-20.1-34.5-3.6-69.6,15.6-84.9,46.8-12.2,23.7-12.6,48.6,13.7,62.1q2.1,1.2,4.5,2.4a34.65,34.65,0,0,0,4.2,3.4c14.3,9.4,31.9,13.5,49,12.6,25.2-.5,34.2-17.6,39.7-39.5,5.7-21.7,8.9-45.4,4.4-67.7Z"/><path id="_-Ink-2" data-name=" -Ink-2" class="cls-6" d="M319.51,264.81c-1.2-3.6-2.6-7-4-10.5a30.72,30.72,0,0,1-.5-5.3c-.2-6.3,1-12.7,2.3-18.8,2.7-12.5,5.5-24.8,7-37.5,2.6-22.7,1-46.4-9.3-67.1-9-18-24.1-32.7-43.7-38.2a89.35,89.35,0,0,0-17.8-2.9l-2.2-.3a112.79,112.79,0,0,0-25.3-1.3c-14,.9-27.9,4.9-39.5,12.9a58.8,58.8,0,0,0-24,33c-4,14.3-3.7,29.7-10.7,43.1-2.1,3.9-4.5,7.7-6.8,11.5-6.1,6.8-12.7,14.3-14.1,23.7-1.8,11.5,4.9,21.3,11.1,30.3,5.7,8.1,13.4,19.4,7.5,29.4-2.8,4.7-7.2,8.3-10.5,12.6a42.79,42.79,0,0,0-7.5,15.1,32.07,32.07,0,0,0,6.8,29.1,34.77,34.77,0,0,0,13.3,9.1c5.2,2.2,10.2,4.3,14.5,8.1a47.64,47.64,0,0,1,5.4,5.6,40.65,40.65,0,0,0,5.5,6.9c2.3,2.3,6.7-.9,4.6-3.6-.2-.2-.3-.4-.5-.6-1.5-2-3.1-4-4.7-5.9a33,33,0,0,1-4.3-25.8,31.25,31.25,0,0,1,2.6-6.6c.2.6.5,1.2.7,1.8a33.37,33.37,0,0,0,4.3,7.3,18.51,18.51,0,0,0,.8,4.7c2.8,9.5,12.4,14.2,20.9,17.8a18.61,18.61,0,0,0,2.5,1c2.2.9,4.6-2.3,3.2-4.2-.4-.5-.7-1-1.1-1.5a31.38,31.38,0,0,1-4.9-21.1c1.1-7.9,5.8-14.4,10.4-20.6s9.4-12.4,11.4-19.9c2.2-8.3.2-16.5-3.2-24.1-3.2-7-7.4-13.4-10.9-20.1,1.2,1.2,2.5,2.4,3.7,3.5a22.85,22.85,0,0,0,4.6,3.6,1.28,1.28,0,0,0,1.7-.5,1.21,1.21,0,0,0-.2-1.5,40.24,40.24,0,0,0-4.5-3.7c-1.4-1.2-2.8-2.4-4.1-3.7-1.6-1.6-3.2-3.2-4.7-4.9a79,79,0,0,1-3-9.4,51.14,51.14,0,0,1-2-13.4c.1-4.6,2.5-7.8,5.6-10.9,1.3-1.3,2.7-2.6,4.1-3.9,2.9-2.1,5.6-4.5,8.3-6.9,4.7-4.2,9.3-8.7,13.6-13.2,1.2-1.2,2.3-2.5,3.5-3.7,4-4.1,7.8-8.4,11.4-12.8a53.61,53.61,0,0,0,10.2-5l-4.2,4.2a84.76,84.76,0,0,1-10,8.9.38.38,0,0,0,.3.7h0a40.13,40.13,0,0,0,13-4.9,62.23,62.23,0,0,0,11.1-9.3,36,36,0,0,0,5.4-3.1c.1-.1.2-.1.3-.2-1.7,5.3-4.1,11.2-9.3,13.1-.2.1-.2.3,0,.3a16.19,16.19,0,0,0,10.7-5.1,63.21,63.21,0,0,0,6.4-5.2,75.3,75.3,0,0,0,5.6-5.7c-2.5,4.9-5.3,9.7-8,14.4-.1.3.2.6.4.4a46.49,46.49,0,0,0,13.7-14.9l1.5-2.7-1.2,4.2c-.8,2.5-1.6,5-2.3,7.6a27.4,27.4,0,0,1-1.5,4,10,10,0,0,0-1,2.9c0,.1,0,.1.1.1h0c2.3-.6,4.4-3.2,6.1-4.8a35.84,35.84,0,0,0,2.6-2.9c.1,6,.2,12.1.1,18.1-.2,11.1-1,22.3-1.9,33.3-.8,9.8-1.4,20.1-6.9,28.6-4.2,6.6-11.1,11.2-18.6,13.4a14.62,14.62,0,0,1-2,.5c-10.8,2.6-21.6-.3-31.1-5.5a2.57,2.57,0,0,0-3.4,1.1,2.61,2.61,0,0,0,.8,3.3,47.73,47.73,0,0,0,35.2,5.8c-.4,13.8,6.5,27,13.2,38.7,3.8,6.6,7.6,13.1,10.3,20.2a67.58,67.58,0,0,1,4.3,18.8,102.32,102.32,0,0,1-1.1,22.8c-.1.4-.1.8-.2,1.2-.2,1.6,1.2,3,2.8,2.1,7-3.7,10-11.5,11.8-18.7a132.37,132.37,0,0,0,3.5-20.6,73.16,73.16,0,0,1,2.3,8,5,5,0,0,1,.2,1.2c.5,2.3,3.9,2.1,4.5,0l.3-1.2a96,96,0,0,0,2.1-35.4,60.49,60.49,0,0,0-3.4-18.4"/></g><g id="head_mono_Medium-Bangs-3" data-name="head mono Medium-Bangs-3"><path id="_-Background-3" data-name=" -Background-3" class="cls-5" d="M249.21,96.51c19.9,0,44.8,22.7,52.1,32.3,6.1,8.1,5.3,49.9,5.3,74.7,0,5.2-2.3,15-3.2,20-3.1,18.2-16.7,33.4-43.6,33.4-21.9,0-38.7-6.9-55-24.7-3.7-4-21.9,10.4-25.6,5.2-9.7,0-17.8-90.6,1.2-117.8S229.31,96.51,249.21,96.51Z"/><path id="_-Ink-3" data-name=" -Ink-3" class="cls-6" d="M189.41,102.91c11.5-10.5,26.8-15.5,42.2-15.1a78.66,78.66,0,0,1,23.5,4.3,63.11,63.11,0,0,1,10.9,5,27.14,27.14,0,0,1,3.5,2.4l.3.2h0a24.2,24.2,0,0,1,8.1,5.3,35.67,35.67,0,0,1,14.5,1.6,34.52,34.52,0,0,1,16.9,11.4c5,6.3,6.6,14,6,22l-.1,1.3c-.6,7-1.6,16-7.4,20.6a3.92,3.92,0,0,1-1.4.8,80.3,80.3,0,0,1,8.6,20.5c6.9,27.2,1.6,55.6-6.8,81.8-.7,2.2-4,3.6-5.6,1.5-3-3.8-7.3-6.7-12.1-7.2-3-.3-6,.3-8.8-1.1a8.06,8.06,0,0,1-3-2.5,38.5,38.5,0,0,1-15,2.5c-8.4-.3-17.3-3.2-23.1-9.6a3.37,3.37,0,0,1-.9-3.2l2.2-.6c7.3,4.3,15.4,7.2,24,7.4,5,.1,9.9-.6,13.9-3.7a17,17,0,0,0,2.4-2.2c8.5-5.5,14.5-14.7,17.3-24.6,2.6-9.2,2.3-18.9,1.4-28.4l-.5-5c-.7-7.3-1.3-14.7-1.5-22.1h.1c1.8-.1,1.8-2.9,0-2.8-4.7.3-9.3-.5-13.9-.1a23.64,23.64,0,0,0-.8-6.5c-.4-1.2-2.5-1.4-2.7,0a37.7,37.7,0,0,0-.4,5.8c-7-.1-13.9-.7-20.9-.4-1.3-1.4-1.7-3.8-2.3-5.5-.1-.2-.2-.5-.3-.7a36.75,36.75,0,0,1-2.3,7.1h-1.7c-9.7,0-19.6.3-29,2.3a3.7,3.7,0,0,1-1.2-2.2,77.85,77.85,0,0,0-3.4-15.2l-.2-.7c0-.1,0-.1-.1-.2a36,36,0,0,1-4.5,5.8,29.12,29.12,0,0,1-3.1,3l-3.1,3.4c0,.2.1.4.1.6a33.44,33.44,0,0,1-3.5,19.4l-.1.4a12.39,12.39,0,0,1-1.7,5,12.69,12.69,0,0,1,2.7,4.8c.5,1.6-1.8,3-2.9,1.7a13,13,0,0,0-3.1-2.6.37.37,0,0,1-.3.1c-3.1-1.7-8.5-1.2-11.6.4-3.9,2-5.4,6.2-5,10.5.4,4.1,2.2,8.8,5.6,10.9a5.12,5.12,0,0,0,4.5.6,10.93,10.93,0,0,0,1.5-.8l.3-.2a5.32,5.32,0,0,1,3.4-1.5,2.58,2.58,0,0,1,3.2,1.6v.1a6.26,6.26,0,0,1,.6,2.7,5,5,0,0,1-1.4,3.1l-.4.4c13.7,14.8,15.4,37.9,8.4,56.4a24.43,24.43,0,0,1-1,2.4c-1.2,2.7-5.7,1.9-6.3-.8l-.6-2.4c-.4-1.5-.8-2.9-1.3-4.4l-.2-.5-1.2-3.6v-.1c0-.1,0-.1-.1-.2l-.7,1.6h0l-2.2,4.7c-1,2.2-4.2,1-4.3-1.1v-1.3a39.85,39.85,0,0,0-1.4-8.4l-.3.4c-4.2,5.2-9.2,10.1-15.9,11.3-1.7.3-3.6-1.5-2.5-3.2.5-.7.9-1.4,1.4-2.2-.4-.2-.7-.4-1.1-.6a21.23,21.23,0,0,1-6.5-5.8c-3.8-5-5.1-11.2-5.4-17.3a58.13,58.13,0,0,1,2-19.5,52.38,52.38,0,0,1,3-7.8,1.85,1.85,0,0,1-.2-.7,106.26,106.26,0,0,1-3.2-11,104,104,0,0,1-2.8-22.9,108.89,108.89,0,0,1,7.2-40.7C171,125.31,178.81,112.51,189.41,102.91ZM183,223.61a1.39,1.39,0,0,0-2.4,1.4v.1c1.5,2.4,2.2,5.1,3.1,7.7.6,1.7,3.3,1,2.7-.7l-.2-.6A33.59,33.59,0,0,0,183,223.61Zm8.3-28.6.6-.3c2-1,3.7-1.6,6.1-.8,3.2,1.1,6.5,4.6,4.4,8.1a3.38,3.38,0,0,1-3.6,1.5c-2.4-.5-3-2.7-4.3-4.5l-.2-.3c-.7-1.1-1.7-2.6-2.9-3-.3-.1-.5-.6-.1-.7Zm1.7-72.8.2-.2c1.4-1.2-.6-3.2-2-2-6.2,5.5-8.3,14-11.5,21.3-.7,1.6,1.7,3.1,2.4,1.4C185.21,135.81,187.21,127.51,193,122.21Zm74.2-2.4c-1.6-.7-3,1.6-1.5,2.4h.1c5.4,2.5,7.8,8,10,13.2.7,1.7,3.1.2,2.4-1.4l-.4-.9c-2.4-5.3-5.1-10.8-10.6-13.3Zm8.5-3.4c-1.7-.6-2.4,2.1-.7,2.7,4.6,1.6,7.8,5.1,10.5,9,1,1.5,3.4.1,2.4-1.4-3.2-4.5-6.9-8.4-12.2-10.3Z"/></g><g id="accessories_Glasses-2" data-name="accessories/Glasses-2"><path id="_-Ink-2-2" data-name="ðŸ–-Ink" class="cls-7" d="M305.21,207.41a17.7,17.7,0,0,1-19.1,3.7c-16.2-6.8-8.3-28.1,4.2-33.7,1.6-.4,3.7-1.3,5.5-1.6.2-.1.6.2,1-.1,14,1.6,17.2,23.1,8.4,31.7m-52.5,1.3c-5.4,7.1-15.3,9.3-23.4,6-16.1-6.3-10.3-25.1.6-32.5,23.2-8.7,32.8,13.4,22.8,26.5m-34.8-15.8h0c0-.1.1-.1.2-.1s-.1.2-.2.1c.1.1,0,.1,0,0m98.3-7.6c-1.3,0-3.2.2-4.2,1.1-2.7-9-12.6-17.4-21.1-11.3a23.91,23.91,0,0,0-14.6,13.4c-5.2-3-13.2-1.8-17.6,2.3-3-9.6-10.1-13-18.6-13.5-9.3-1.6-18.6,7.6-21.5,14.8-2.4-.3-6-1-8.3.5-14.8-3.9-40.5-6-43.5-3.9-2.1.8-3.3,5.8-.4,6.1,2.6-.4-.3-3.7,2.3-4.1,13.9-.8,27.5,1.9,41.3,3.1,1.2,1.7,5.2,2.2,7.3,1.6-3.3,12.4,3.9,20.7,14.7,23.3,16.8,3.9,31.3-11.2,27-26.8,5.1-2.5,10.9-2.4,16.4-1.1-9.2,34,45.5,32.5,37-3.3,5.6,2.9,6.8-1.6,3.8-2.2"/></g><g id="face_Smile" data-name="face/Smile"><path id="_-Ink-3-2" data-name="ðŸ–-Ink" class="cls-6" d="M260.21,242.71a16,16,0,0,1-6.7-5.1,3.12,3.12,0,0,1-.6-2.4,3.63,3.63,0,0,1,1.3-2.2,2.94,2.94,0,0,1,2.4-.6,3.49,3.49,0,0,1,2.1,1.3l.1.2a11.61,11.61,0,0,0,3.8,3.2,8.4,8.4,0,0,0,4.7.8c3.2-.4,5.5-2.1,7.8-4.4l.9-.9c.2-.3.4-.5.7-.5a1.7,1.7,0,0,1,1,0,1.56,1.56,0,0,1,.8.6,1,1,0,0,1,.2.9,10.24,10.24,0,0,1-3.3,6.4,15.55,15.55,0,0,1-7.2,3.7,15.85,15.85,0,0,1-8-1Zm9.5-37.7c3,1.7,7.4,6,4.2,10.4-3.7,3.9-9.2-.6-11.7-2.6-2.5-1.5-5.2,2.5-3,4.3,19.1,14.2,26.9-11.6,11.9-14.2C269.51,202.71,268.91,204.41,269.71,205Zm-34.4-16.4c.3-4,6.5-4.9,7.1-.9a16.76,16.76,0,0,1-1.7,10.1c-1.5,3.1-5.5,1.6-5.8-1.1C234.61,192.81,235.21,191,235.31,188.61Zm46.9-1.9a3.18,3.18,0,0,1,3.6-1.4c4.6,1.3,3.3,7.9,1.6,11.1a3.17,3.17,0,0,1-5,.6c-2.1-2.5-3.1-7.5-.4-10A1.44,1.44,0,0,1,282.21,186.71Zm-41.5-15.8.7-.1c2.3-.4,5-.7,6.7,1,.8.9,1.1,2.8,0,3.7-2.1,1.6-4.2,1-6.7,1.1a22.75,22.75,0,0,0-5.8,1c-4.2,1.2-7.6,3.4-11.2,5.8-.5.3-.9-.3-.7-.7a23.52,23.52,0,0,1,10.1-9.4A21.81,21.81,0,0,1,240.71,170.91ZM278,169l.5.1c6.1,1.2,14,3.8,17,9.8.1.8,0,1-.1,1.1h0a.69.69,0,0,1-.5.3.37.37,0,0,1-.3-.1,15.05,15.05,0,0,1-3.4-1.3l-1.1-.5a26.6,26.6,0,0,0-3.9-1.6,54.51,54.51,0,0,0-8.9-2,3.25,3.25,0,0,1-1.7-.7,2.68,2.68,0,0,1-1-1.5,3.12,3.12,0,0,1,.3-2.3,2.36,2.36,0,0,1,1.4-1.2A3.15,3.15,0,0,1,278,169Z"/></g></svg>