<svg id="Layer_1" data-name="Layer 1" xmlns="http://www.w3.org/2000/svg" viewBox="0 0 465 561"><defs><style>.cls-1{fill:#f7b9b7;stroke:#000;stroke-miterlimit:10;stroke-width:2px;}.cls-2{fill:#fff;}.cls-2,.cls-3{fill-rule:evenodd;}</style></defs><rect x="64.29" y="64.91" width="347.78" height="442.53" rx="71.05"/><path class="cls-1" d="M124,53.57H329.67a71,71,0,0,1,71,71V432.79a61.5,61.5,0,0,1-61.5,61.5H124a71,71,0,0,1-71-71V124.61A71,71,0,0,1,124,53.57Z"/><g id="body_mono_Dress" data-name="body/mono/Dress"><path id="_-Background" data-name="ðŸŽ¨-Background" class="cls-2" d="M338.67,471q-1.2-11.1-1.5-22.2c-.3-7.4.1-14.9.2-22.3.3-15,.8-30.1-.3-45.2a204.73,204.73,0,0,0-7.6-41.9c-2-6.6-4-13.6-7.2-19.7s-8.3-10.3-13.9-14.1c-6-4-11.9-8.1-17.9-12.2-5-3.4-14-7.4-18.1-11.9-4.3-4.8-5.1-16.6-8-22.3-2.8-5.5-10.7-9.1-16.8-9.1-10.1,0-17.7-.5-26,9-4.1,4.8-.8,9.6-5.2,14.2-4,4.2-14.2,8.5-19.3,11q-9.3,4.35-18.9,7.8c-6.5,2.3-13.2,4.1-19.8,6.3-6.3,2.1-14.5,10.9-19.4,15.5-4.5,4.3-5.7,3.8-9.1,9.1-7.6,11.5-15.2,23.1-21.2,35.5-3,6.2-5.9,12.7-7,19.6-1.2,7.3,0,14.4,1.9,21.5s8,14.1,10,21.3c.9,3.3-2.2,6.9-.8,10.1a17.34,17.34,0,0,0,2.7,4.3c.8,1,3.9.8,4.3,2.1s-1.8,4-1.9,5.3c0,1.9-.1,3.8-.2,5.8l-.4,11.4c-.2,7.5-.5,14.9-.7,22.4a24.06,24.06,0,0,0,.4,7.1l-.6-.6a.7.7,0,0,0-1.2.7,6.91,6.91,0,0,0,3.1,3c1.5,2.2,221.8,7.1,222.9.7.6-3.6-.5-7.5-.9-11C339.67,478.5,339.07,474.8,338.67,471Z"/><path id="_-Ink" data-name="ðŸ–-Ink" class="cls-3" d="M114.87,378.2c.5-1.6,3-.9,2.5.7-2.8,8.2-.8,17.1,2.2,24.9.6,1.6-1.9,2.2-2.5.7-3.2-8.2-5.2-17.7-2.2-26.3m18.7,46.8c7.9,1.1,15.7,1.8,23.7,2.4a2.22,2.22,0,0,0,.9-.1c-.2,3.7-.4,7.4-.6,11.2-2.2-.1-4.4.1-6.5,0-2.8-.1-5.6-.2-8.4-.4-5.4-.4-10.8-1.1-16.2-2a65.28,65.28,0,0,1-6.8-1.2,7.54,7.54,0,0,1-5.1-3.7,12.29,12.29,0,0,1-1-5.7c0-1.3.2-2.6.3-3.9.2-.1.3-.3.4-.4a59.84,59.84,0,0,0,7.3,1.8c4,.7,8,1.4,12,2m-4.5-30.3a12.9,12.9,0,0,0,2,6.9c.9,1.4-1.3,2.7-2.2,1.3a17,17,0,0,1-2.4-8.2,1.3,1.3,0,0,1,2.6,0M330.87,422c1.1.1,2.1.1,3.2.2a4.21,4.21,0,0,0,3.4,1c0,.1.1.2.1.4a20.24,20.24,0,0,1,.4,2.6c.1.8.2,1.7.3,2.5a5.44,5.44,0,0,1,0,1.8c-.2.3-.7.3-1.1.3a26.42,26.42,0,0,1-2.9.2c-1.8.2-3.6.3-5.4.5a31.88,31.88,0,0,0-5.4.6c-.3-3.5-.6-7.1-.8-10.6,2.8.4,5.6.3,8.2.5m-223.5-5.9c1.1,2.1,2.1,4.2,4.1,5.5a1.61,1.61,0,0,0,.9.3c-.2,1-.4,2-.5,3a16.65,16.65,0,0,0,.2,6.3,8.66,8.66,0,0,0,3,5.1,8.87,8.87,0,0,0,2.5,1.4,5.07,5.07,0,0,0-.2,1.3c-.2,1.1-.3,2.2-.5,3.2-.3,2.3-.7,4.6-.9,7-.5,4.6-.9,9.3-1.3,13.9s-.6,9.3-.8,13.9c-.1,2.4-.2,4.7-.3,7.1s-.5,4.9.6,7.2c.8,1.8,3.7,1.7,4.6,0,1.1-2.2.8-4.8.8-7.2s.1-4.5.1-6.8c.1-4.6.2-9.3.3-13.9s.2-9.1.3-13.6c0-2.4,0-4.7.1-7.1,0-1.3.1-2.7,0-4.1a20.48,20.48,0,0,0,2.4.5,163.43,163.43,0,0,0,18.4,2.8q4.65.45,9.3.6c2.3.1,4.7.2,7,.2-.2,5.7-.3,11.4-.3,17,0,4.1.1,8.2.2,12.3.1,2.2.1,4.3.2,6.5a28.1,28.1,0,0,0,.1,2.9c0,.3.1.6.1.9a12.09,12.09,0,0,0-.5,1.8,22.57,22.57,0,0,0-.4,8.2c.3,2.4,2.2,4.6,4.8,3.7.4-.1.8-.3,1.3-.4,3.8.4,7.6.5,11.5.6,5.6.1,11.2.1,16.9.2,11,.1,22.1.1,33.1.1,22.2.1,44.3.1,66.5.2,6.2,0,12.3,0,18.5.1,3.2,0,6.4,0,9.5.1,1.5.1,3,.1,4.5.2a21.1,21.1,0,0,0,4.9-.9,1.67,1.67,0,0,0,1.1-2,3.14,3.14,0,0,0,3.8-2.1,5.57,5.57,0,0,0-.3-3.8h0c-1.1-6.9-2.4-13.8-3.5-20.7-1.2-7.6-2.3-15.1-3.3-22.7-.7-5.7-1.4-1.7-1.9-7.4,2.3.2,4.9-.5,7.2-.8l4.9-.6c-.1,1.7-.1,3.4-.1,5-.1,3.2,0,6.4,0,9.6.2,6.2.5,2.6,1,8.8s1.2,12.4,2,18.6c.4,3.2.9,6.4,1.3,9.6.2,1.5.4,3,.7,4.4.3,1.7.4,3.4,1.6,4.7a2.27,2.27,0,0,0,3.6-.5c.8-1.8.4-3.3.1-5.1-.2-1.5-.5-3-.7-4.4-.5-3.2-1-6.4-1.4-9.5-.9-6.1-1.7-12.3-2.4-18.4s-1.5-2.6-2.2-8.8c-.4-3.1-.7-6.2-1.1-9.4-.2-1.6-.3-3.3-.6-5h.3a5,5,0,0,0,4.1-3.5c.5-2-.1-4.2-.5-6.1-.3-1.6-.6-3.7-1.7-5.1,3.6-4.7,6-10.7,7.5-16.4a87.84,87.84,0,0,0,2.5-19.2,117.32,117.32,0,0,0-1.6-22.2c0-1.5-.1-3.1-.2-4.6-1.1-15.2-5.7-33.1-20.3-40.2-.1,0-.1-.1-.2-.1a44.8,44.8,0,0,0-3.7-3.8,60.69,60.69,0,0,0-6.5-5.9,78.85,78.85,0,0,0-14.5-9.2c-5.2-2.7-10.4-5.2-15.5-8.1a66.71,66.71,0,0,1-12.1-9,28.26,28.26,0,0,1-8.4-14.8.26.26,0,0,0-.5.1c-.3,10.4,6.6,19.7,14.5,25.5,9.5,7,20.9,10.3,30.5,17a60.23,60.23,0,0,1,6.7,5.6,25.56,25.56,0,0,0-9.6.8c-1.2-.1-2.4-.1-3.6-.2-2.8-.1-5.5-.3-8.3-.4-5.6-.3-11.2-.5-16.8-.7-11-.4-22-.7-33.1-.9-22.2-.4-44.3-.5-66.5.2-6,.2-37.6-1-40.5-.7a65.24,65.24,0,0,1,14.2-9.5,120.79,120.79,0,0,1,20.1-7.3c14.3-4,29.1-7.9,40.5-18.1a38.77,38.77,0,0,0,7.4-8.7c2-3.1,4.2-7,4.2-10.8a2.66,2.66,0,0,0-4.9-1.4c-.8,1.4-1.2,3-1.9,4.5a28.2,28.2,0,0,1-2.3,4.2,38.15,38.15,0,0,1-6.1,7.2,56.54,56.54,0,0,1-16.8,10.5c-13.8,5.8-28.9,8.2-42.1,15.8-5.7,3.3-11.2,7.9-14.7,13.8l-1.7.3c.4-.5.8-1.1,1.2-1.6.3-.3-.2-.8-.5-.5a157,157,0,0,0-18,19.3c-5.2,6.7-10.1,13.7-13.5,21.5a74.54,74.54,0,0,0-4.3,45.2,72.35,72.35,0,0,0,3.7,12c.9,2,1.8,4,2.7,5.9"/></g><g id="head_mono_Long-Bangs" data-name="head mono Long-Bangs"><path id="_-Background-2" data-name=" -Background-2" class="cls-2" d="M307.27,142.8c-3.7-13.4-17.9-19.2-30.6-20.1-34.5-3.6-69.6,15.6-84.9,46.8-12.2,23.7-12.6,48.6,13.7,62.1q2.1,1.2,4.5,2.4a34.65,34.65,0,0,0,4.2,3.4c14.3,9.4,31.9,13.5,49,12.6,25.2-.5,34.2-17.6,39.7-39.5,5.7-21.7,8.9-45.4,4.4-67.7Z"/><path id="_-Ink-2" data-name=" -Ink-2" class="cls-3" d="M323.77,268.8c-1.2-3.6-2.6-7-4-10.5a30.72,30.72,0,0,1-.5-5.3c-.2-6.3,1-12.7,2.3-18.8,2.7-12.5,5.5-24.8,7-37.5,2.6-22.7,1-46.4-9.3-67.1-9-18-24.1-32.7-43.7-38.2a89.35,89.35,0,0,0-17.8-2.9l-2.2-.3a112.79,112.79,0,0,0-25.3-1.3c-14,.9-27.9,4.9-39.5,12.9a58.8,58.8,0,0,0-24,33c-4,14.3-3.7,29.7-10.7,43.1-2.1,3.9-4.5,7.7-6.8,11.5-6.1,6.8-12.7,14.3-14.1,23.7-1.8,11.5,4.9,21.3,11.1,30.3,5.7,8.1,13.4,19.4,7.5,29.4-2.8,4.7-7.2,8.3-10.5,12.6a42.79,42.79,0,0,0-7.5,15.1,32.07,32.07,0,0,0,6.8,29.1,34.77,34.77,0,0,0,13.3,9.1c5.2,2.2,10.2,4.3,14.5,8.1a47.64,47.64,0,0,1,5.4,5.6,40.65,40.65,0,0,0,5.5,6.9c2.3,2.3,6.7-.9,4.6-3.6-.2-.2-.3-.4-.5-.6-1.5-2-3.1-4-4.7-5.9a33,33,0,0,1-4.3-25.8,31.25,31.25,0,0,1,2.6-6.6c.2.6.5,1.2.7,1.8a33.37,33.37,0,0,0,4.3,7.3,18.51,18.51,0,0,0,.8,4.7c2.8,9.5,12.4,14.2,20.9,17.8a18.61,18.61,0,0,0,2.5,1c2.2.9,4.6-2.3,3.2-4.2-.4-.5-.7-1-1.1-1.5a31.38,31.38,0,0,1-4.9-21.1c1.1-7.9,5.8-14.4,10.4-20.6s9.4-12.4,11.4-19.9c2.2-8.3.2-16.5-3.2-24.1-3.2-7-7.4-13.4-10.9-20.1,1.2,1.2,2.5,2.4,3.7,3.5a22.85,22.85,0,0,0,4.6,3.6,1.28,1.28,0,0,0,1.7-.5,1.21,1.21,0,0,0-.2-1.5,40.24,40.24,0,0,0-4.5-3.7c-1.4-1.2-2.8-2.4-4.1-3.7-1.6-1.6-3.2-3.2-4.7-4.9a79,79,0,0,1-3-9.4,51.14,51.14,0,0,1-2-13.4c.1-4.6,2.5-7.8,5.6-10.9,1.3-1.3,2.7-2.6,4.1-3.9,2.9-2.1,5.6-4.5,8.3-6.9,4.7-4.2,9.3-8.7,13.6-13.2,1.2-1.2,2.3-2.5,3.5-3.7,4-4.1,7.8-8.4,11.4-12.8a53.61,53.61,0,0,0,10.2-5l-4.2,4.2a84.76,84.76,0,0,1-10,8.9.38.38,0,0,0,.3.7h0a40.13,40.13,0,0,0,13-4.9,62.23,62.23,0,0,0,11.1-9.3,36,36,0,0,0,5.4-3.1c.1-.1.2-.1.3-.2-1.7,5.3-4.1,11.2-9.3,13.1-.2.1-.2.3,0,.3a16.19,16.19,0,0,0,10.7-5.1,63.21,63.21,0,0,0,6.4-5.2,75.3,75.3,0,0,0,5.6-5.7c-2.5,4.9-5.3,9.7-8,14.4-.1.3.2.6.4.4a46.49,46.49,0,0,0,13.7-14.9l1.5-2.7-1.2,4.2c-.8,2.5-1.6,5-2.3,7.6a27.4,27.4,0,0,1-1.5,4,10,10,0,0,0-1,2.9c0,.1,0,.1.1.1h0c2.3-.6,4.4-3.2,6.1-4.8a35.84,35.84,0,0,0,2.6-2.9c.1,6,.2,12.1.1,18.1-.2,11.1-1,22.3-1.9,33.3-.8,9.8-1.4,20.1-6.9,28.6-4.2,6.6-11.1,11.2-18.6,13.4a14.62,14.62,0,0,1-2,.5c-10.8,2.6-21.6-.3-31.1-5.5a2.57,2.57,0,0,0-3.4,1.1,2.61,2.61,0,0,0,.8,3.3,47.73,47.73,0,0,0,35.2,5.8c-.4,13.8,6.5,27,13.2,38.7,3.8,6.6,7.6,13.1,10.3,20.2a67.58,67.58,0,0,1,4.3,18.8,102.32,102.32,0,0,1-1.1,22.8c-.1.4-.1.8-.2,1.2-.2,1.6,1.2,3,2.8,2.1,7-3.7,10-11.5,11.8-18.7a132.37,132.37,0,0,0,3.5-20.6,73.16,73.16,0,0,1,2.3,8,5,5,0,0,1,.2,1.2c.5,2.3,3.9,2.1,4.5,0l.3-1.2a96,96,0,0,0,2.1-35.4,63.68,63.68,0,0,0-3.4-18.4"/></g><g id="head_mono_Medium-Bangs-3" data-name="head mono Medium-Bangs-3"><path id="_-Background-3" data-name=" -Background-3" class="cls-2" d="M253.47,100.5c19.9,0,44.8,22.7,52.1,32.3,6.1,8.1,5.3,49.9,5.3,74.7,0,5.2-2.3,15-3.2,20-3.1,18.2-16.7,33.4-43.6,33.4-21.9,0-38.7-6.9-55-24.7-3.7-4-21.9,10.4-25.6,5.2-9.7,0-17.8-90.6,1.2-117.8S233.57,100.5,253.47,100.5Z"/><path id="_-Ink-3" data-name=" -Ink-3" class="cls-3" d="M193.67,106.9c11.5-10.5,26.8-15.5,42.2-15.1a78.66,78.66,0,0,1,23.5,4.3,63.11,63.11,0,0,1,10.9,5,27.14,27.14,0,0,1,3.5,2.4l.3.2h0a24.2,24.2,0,0,1,8.1,5.3,35.67,35.67,0,0,1,14.5,1.6,34.52,34.52,0,0,1,16.9,11.4c5,6.3,6.6,14,6,22l-.1,1.3c-.6,7-1.6,16-7.4,20.6a3.92,3.92,0,0,1-1.4.8,80.3,80.3,0,0,1,8.6,20.5c6.9,27.2,1.6,55.6-6.8,81.8-.7,2.2-4,3.6-5.6,1.5-3-3.8-7.3-6.7-12.1-7.2-3-.3-6,.3-8.8-1.1a8.06,8.06,0,0,1-3-2.5,38.5,38.5,0,0,1-15,2.5c-8.4-.3-17.3-3.2-23.1-9.6a3.37,3.37,0,0,1-.9-3.2l2.2-.6c7.3,4.3,15.4,7.2,24,7.4,5,.1,9.9-.6,13.9-3.7a17,17,0,0,0,2.4-2.2c8.5-5.5,14.5-14.7,17.3-24.6,2.6-9.2,2.3-18.9,1.4-28.4l-.5-5c-.7-7.3-1.3-14.7-1.5-22.1h.1c1.8-.1,1.8-2.9,0-2.8-4.7.3-9.3-.5-13.9-.1a23.64,23.64,0,0,0-.8-6.5c-.4-1.2-2.5-1.4-2.7,0a37.7,37.7,0,0,0-.4,5.8c-7-.1-13.9-.7-20.9-.4-1.3-1.4-1.7-3.8-2.3-5.5-.1-.2-.2-.5-.3-.7a36.75,36.75,0,0,1-2.3,7.1H258c-9.7,0-19.6.3-29,2.3a3.7,3.7,0,0,1-1.2-2.2,77.85,77.85,0,0,0-3.4-15.2l-.2-.7c0-.1,0-.1-.1-.2a36,36,0,0,1-4.5,5.8,29.12,29.12,0,0,1-3.1,3l-3.1,3.4c0,.2.1.4.1.6a33.44,33.44,0,0,1-3.5,19.4l-.1.4a12.39,12.39,0,0,1-1.7,5,12.69,12.69,0,0,1,2.7,4.8c.5,1.6-1.8,3-2.9,1.7a13,13,0,0,0-3.1-2.6.37.37,0,0,1-.3.1c-3.1-1.7-8.5-1.2-11.6.4-3.9,2-5.4,6.2-5,10.5.4,4.1,2.2,8.8,5.6,10.9a5.12,5.12,0,0,0,4.5.6,10.93,10.93,0,0,0,1.5-.8l.3-.2a5.32,5.32,0,0,1,3.4-1.5,2.58,2.58,0,0,1,3.2,1.6v.1a6.26,6.26,0,0,1,.6,2.7,5,5,0,0,1-1.4,3.1l-.4.4c13.7,14.8,15.4,37.9,8.4,56.4a24.43,24.43,0,0,1-1,2.4c-1.2,2.7-5.7,1.9-6.3-.8l-.6-2.4c-.4-1.5-.8-2.9-1.3-4.4l-.2-.5-1.2-3.6v-.1c0-.1,0-.1-.1-.2l-.7,1.6h0l-2.2,4.7c-1,2.2-4.2,1-4.3-1.1v-1.3a39.85,39.85,0,0,0-1.4-8.4l-.3.4c-4.2,5.2-9.2,10.1-15.9,11.3-1.7.3-3.6-1.5-2.5-3.2.5-.7.9-1.4,1.4-2.2-.4-.2-.7-.4-1.1-.6a21.23,21.23,0,0,1-6.5-5.8c-3.8-5-5.1-11.2-5.4-17.3a58.13,58.13,0,0,1,2-19.5,52.38,52.38,0,0,1,3-7.8,1.85,1.85,0,0,1-.2-.7,106.26,106.26,0,0,1-3.2-11,104,104,0,0,1-2.8-22.9,108.89,108.89,0,0,1,7.2-40.7C175.27,129.3,183.07,116.5,193.67,106.9Zm-6.4,120.7a1.39,1.39,0,0,0-2.4,1.4v.1c1.5,2.4,2.2,5.1,3.1,7.7.6,1.7,3.3,1,2.7-.7l-.2-.6A38.48,38.48,0,0,0,187.27,227.6Zm8.3-28.6.6-.3c2-1,3.7-1.6,6.1-.8,3.2,1.1,6.5,4.6,4.4,8.1a3.38,3.38,0,0,1-3.6,1.5c-2.4-.5-3-2.7-4.3-4.5l-.2-.3c-.7-1.1-1.7-2.6-2.9-3-.3-.1-.5-.6-.1-.7Zm1.7-72.8.2-.2c1.4-1.2-.6-3.2-2-2-6.2,5.5-8.3,14-11.5,21.3-.7,1.6,1.7,3.1,2.4,1.4C189.47,139.8,191.47,131.5,197.27,126.2Zm74.2-2.4c-1.6-.7-3,1.6-1.5,2.4h.1c5.4,2.5,7.8,8,10,13.2.7,1.7,3.1.2,2.4-1.4l-.4-.9c-2.4-5.3-5.1-10.8-10.6-13.3Zm8.5-3.4c-1.7-.6-2.4,2.1-.7,2.7,4.6,1.6,7.8,5.1,10.5,9,1,1.5,3.4.1,2.4-1.4-3.2-4.5-6.9-8.4-12.2-10.3Z"/></g><g id="face_Smile-LOL" data-name="face/Smile-LOL"><path id="_-Ink-2-2" data-name="ðŸ–-Ink" class="cls-3" d="M270.77,225.4c4.6,0,11.6-.2,16.2.1,1.3.1,2,2,2.1,2.9.9,8.4-5.8,15.1-13.2,17.7-6.9,2.4-16,2.9-22.1-1.6a18.8,18.8,0,0,1-6-7.7,21.48,21.48,0,0,1-1.5-5.1c-.2-1.3-.6-3.1-.1-4.4.7-1.8,2.5-1.7,4.2-1.7,2.2,0,4.4-.1,6.6-.1C261.47,225.4,266.17,225.4,270.77,225.4Zm12.9,2.5h0c-2.1.2-25.1.4-28.7.5h-1.7c-.4,1.2.6,3.7,1.7,4.2s10.4.9,15.9.6c3.7-.2,13.5-2.4,13.5-3.4s-.4-2-.7-1.9Zm-12-21.6c-.7-.5-.2-2.3,1.4-2,14.4,2.5,6.9,27.2-11.4,13.6-2.2-1.8.5-5.6,2.8-4.1,2.5,1.9,7.7,6.2,11.3,2.5C278.87,212,274.57,208,271.67,206.3Zm-27.9-16a10.72,10.72,0,0,1,11.4,6.8,2.82,2.82,0,0,1-1.3,3.1,2.87,2.87,0,0,1-3.3-.4c-1.3-1-1.9-2.7-3.3-3.6a6.08,6.08,0,0,0-4.2-.6c-3.3.5-5.8,2.7-8.8,3.9-.4.2-.7-.4-.5-.7C235.47,194.6,239.27,191,243.77,190.3Zm45.5-.2c3.8-.3,8.2,1.3,9.4,5.2a.22.22,0,0,1-.2.2,13.72,13.72,0,0,0-7.2-.9c-1.6.3-4.6,1.4-4.8,3.2-.2,2.8-3.4,3.4-5,1.3s-.2-4.8,1.5-6.3A10.48,10.48,0,0,1,289.27,190.1Zm-36-15.7a2.51,2.51,0,0,1,0,3.5c-1.9,1.6-4.1,1-6.4,1.1a27.22,27.22,0,0,0-5.6.9c-4,1.1-7.3,3.2-10.7,5.6-.5.3-.9-.3-.7-.7a21.68,21.68,0,0,1,9.7-9,25.87,25.87,0,0,1,6.6-2.3l.7-.1C249.07,173,251.77,172.7,253.27,174.4Zm30.5-2.6.5.1c5.8,1.2,13.4,3.7,16.2,9.4.1.8,0,1-.1,1.1h0a.69.69,0,0,1-.5.3.37.37,0,0,1-.3-.1,11.86,11.86,0,0,1-3.2-1.3l-1.1-.5a25.44,25.44,0,0,0-3.8-1.6,42.68,42.68,0,0,0-8.6-1.9,3.63,3.63,0,0,1-1.7-.7,2.38,2.38,0,0,1-1-1.5,2.82,2.82,0,0,1,.3-2.2,2.76,2.76,0,0,1,1.4-1.2A11.48,11.48,0,0,1,283.77,171.8Z"/></g></svg>