<svg id="Layer_1" data-name="Layer 1" xmlns="http://www.w3.org/2000/svg" viewBox="0 0 257.58 410.71"><defs><style>.cls-1{fill:#fff;}.cls-1,.cls-2,.cls-3{fill-rule:evenodd;}.cls-2{fill:#d24427;}</style></defs><g id="body_mono_Polo-and-Sweater" data-name="body/mono/Polo-and-Sweater"><path id="_-Background" data-name="ðŸŽ¨-Background" class="cls-1" d="M308.51,575.92c20,.6,39,1.3,58.9,0,32-2.1,125.9,1.7,146.5,0,1.6-.1,6.9,1.7,7,0,.9-11.8,1.5-131.2-1.2-139.5s-16-47.7-33-66.1c-4.7-5-11.9-6.9-15.9-12.7-3.4-6.3-3.2-10-6.5-13.3-1.5-1.4-4.9-2-7.5-4-2.6-2.7-.1-8.8-1.2-12.6-2.2-9.5-10.3-15.7-19.1-17.1-12.2-3.1-25.2-.2-31,10.1-2.2,3.8-1,8.5-3.7,14.6.2,4.6-4.9,5.7-7.9,7.6l-6,6.5c-18.5,11.1-40.3,17.1-56.5,32.1-13.8,14.9-27.5,32.2-33.6,52.4a118.85,118.85,0,0,0-2.2,16.8c-1.5,16.4-5.7,32.4-9.3,48.4-4.1,20.2-7.9,41.6-2.4,62C285.61,565.42,304.91,575.72,308.51,575.92Z" transform="translate(-280.21 -166.09)"/><path id="_-Ink" data-name="ðŸ–-Ink" class="cls-2" d="M404.51,322.42a.45.45,0,0,1,.9.1,71.31,71.31,0,0,1-.8,16c-.3,2.5-.5,5.2-.9,7.6-.1.3-.1.5-.2.8a6,6,0,0,0,.8.8l.9,1,1.9,1.9c3.6,3.7,7.2,7.5,10.9,11.2l5.3,5.5a75.37,75.37,0,0,1,5.5,5.8,3,3,0,0,1,.2,3.8,2.87,2.87,0,0,1-1.9,1.1,6.89,6.89,0,0,1,.7,1.5c.3,1.1-.8,2.6-1.9,2.1-1.3-.5-2.4-1.5-3.7-2a7.49,7.49,0,0,0-4.2-.3,13.32,13.32,0,0,0-1.9.5,50.5,50.5,0,0,0,20.9,5.3,32.33,32.33,0,0,0,4.4-.1,44.47,44.47,0,0,0,7.3-1.2,36.92,36.92,0,0,0,5.6-1.9,21,21,0,0,0,2.6-1.3h.1a31.94,31.94,0,0,0,3.8-2.6.62.62,0,0,0-.1-.7,1.76,1.76,0,0,0-.4-.5,8.34,8.34,0,0,0-3.4-1c-2.8,0-5.8,2.2-8.1,3.6-2.5,1.6-4.8,3.5-7.2,5.3-.1,0-.1.1-.2.1a.37.37,0,0,1-.3-.6,30.93,30.93,0,0,1,6.5-7l1-.8c2.2-1.8,4.9-3.8,7.6-4.2,3.3-.5,6.8,1.7,9.8,3l5.3,2.3c.9.4,2,.8,2.9,1.2l-2.2-7.4-3.3-11.1-.2-.7c-1.1-3.7-2.1-7.6-3.9-11.1-.4-.8-.9-1.6-1.4-2.4a18.34,18.34,0,0,0-1.3-2.4,10.7,10.7,0,0,0-4.8-2.8c-.4-.1-.3-.7.1-.8a9,9,0,0,1,5.1,1l.7.3a13,13,0,0,1,4.1,2.8c2.6,3.1,3.9,7.1,5.1,11l.3,1c.5-.2,3.6.9,4,1.1,11.7,5.3,20.6,15.1,27.2,26.5,7.2,12.6,11.1,27,14.4,41.2,1,4.4,2,8.8,2.9,13.2-4.1,1.7-8.4,2.6-12.3,4.9-1.5.9-.1,3.3,1.3,2.4,3.6-2.2,7.7-3,11.5-4.6,2.1,10.2,3.9,20.5,5.5,30.8,4.8,31.7,7.8,63.8,7.6,95.9a4.56,4.56,0,0,1-.6,2.2,1,1,0,0,0,.5-.4c1.2-2,4.2-.1,3,1.9l-.2.3a8.8,8.8,0,0,1-3.4,3.5,10.14,10.14,0,0,1-5.1,1c-6,.2-12.1.3-18.2.4-.8-6.9-1.2-13.9-2.3-20.8-.3-1.8-2.8-1-2.5.7,1.1,6.6,1.5,13.4,2.2,20.1-12.9.1-25.9.2-38.8.2-17.5.1-35.1,0-52.6,0h-7.5c-20.3,0-40.5-.1-60.8-.2h-4.8a234.62,234.62,0,0,1-3.2-36.5,1.3,1.3,0,1,0-2.6,0,233.35,233.35,0,0,0,3.2,36.4c-4.8,0-9.6,0-14.4.2l-2.4.1a118.41,118.41,0,0,1-14.6-.1c-5.4-.5-10.9-1.5-15.7-4.2a23.54,23.54,0,0,1-5.8-4.6,52.87,52.87,0,0,0,5-3.2c1.4-1,.1-3.4-1.3-2.4-1.7,1.2-3.6,2.3-5.4,3.4a27.28,27.28,0,0,1-3.2-6.1,45.68,45.68,0,0,1-2.2-11,116.74,116.74,0,0,1-.7-13.2,195,195,0,0,1,2.2-27.6c1.2-8.8,2.8-17.4,4.5-26.1l.2-1.2c1.7-8.5,3.3-17.1,5.2-25.5,1.8-7.8,3.8-15.6,6.3-23.2,2.2,1.4,4.5,2.7,6.6,4.2,1.4,1,2.7-1.4,1.3-2.4-2.3-1.6-4.7-2.9-7-4.5a177.52,177.52,0,0,1,9.8-23.8c7.7-15.3,18.1-29,31.4-39.1a89.45,89.45,0,0,1,21.7-12.2,81.51,81.51,0,0,1,24.3-5.4.43.43,0,0,1,.4.4h0l.3.1a7.32,7.32,0,0,1,.8-2.5c1.1-1.8,3.1-2.9,4.8-4l.4-.3a16.67,16.67,0,0,1,6.3-3,.1.1,0,0,1,.1.1,47.7,47.7,0,0,1-5.2,4.8l-.4.4c-1.4,1.3-3.5,2.7-3.5,4.8a64.83,64.83,0,0,0,.6,7.6c.2,2.5.3,5,.4,7.5a239.21,239.21,0,0,1-.8,26.8l3.3-2.3c5.1-3.7,10.2-7.3,15.5-10.7,3.2-2.1,6.7-3.8,10.5-3.8a13.32,13.32,0,0,1,3.4.5c-1.2-1.3-2.4-2.6-3.6-3.8-2-2.1-4-4.2-6-6.2l-5.8-6-5.8-6c-1.8-1.9-3.9-3.6-3.7-6.5.2-2.3,1.3-4.7,2-6.9.1-.3.2-.6.3-1C402.11,333.52,403,327.92,404.51,322.42ZM479,556.52c-1.2-1.3-3,.7-1.9,2l.6.7a14.45,14.45,0,0,1,2.8,3.7l.1.2c.8,1.6,3,.2,2.3-1.4A16.92,16.92,0,0,0,479,556.52Zm-51-.4a26.43,26.43,0,0,0-11.2,0c-1.7.3-1,3,.7,2.7a23.6,23.6,0,0,1,9.9,0C428.91,559.12,429.61,556.42,428,556.12Zm-51.3-28.2c-1.6-.4-2.3,2.3-.7,2.7l.8.2c2.7.7,5.3,1.3,8.2.6,1.6-.4,1-3-.6-2.7h-.1C381.71,529.42,379.21,528.62,376.71,527.92Zm91-18.1c-1.2-1.3-3.1.7-1.9,2a7.58,7.58,0,0,0,5.4,2.8c1.7,0,1.7-2.7.1-2.8h-.1C469.91,511.82,468.71,510.82,467.71,509.82Zm-154-7.5c1.5-.8.2-3.2-1.3-2.4l-9,4.8h0c-1.5.8-.2,3.2,1.3,2.4l9-4.8Zm178.7.6c-1.7-.1-1.7,2.7,0,2.8a10.72,10.72,0,0,1,4.6,1.4c1.5.8,2.8-1.6,1.3-2.4A15,15,0,0,0,492.41,502.92Zm-84.5-13.4c1.4-1,.1-3.4-1.3-2.4-1.9,1.4-3.6,3-5.5,4.4l-.5.4c-1.4,1-.1,3.4,1.3,2.4C404,492.82,405.81,491,407.91,489.52Zm97.3-20.3c-1.7,0-1.7,2.8,0,2.8h.3a11,11,0,0,1,4.1.5l.1.1c1.5.8,2.8-1.6,1.3-2.4C509.31,469.22,507.31,469.22,505.21,469.22Zm-145.3-2,.2-.1c1.6-.6.9-3.3-.7-2.7-2.4.9-4.3,2.7-6.3,4.2-1.4,1-.1,3.4,1.3,2.4,1.8-1.3,3.5-3,5.5-3.8Zm98.2-7.3.4-.2c1.5-.8.2-3.2-1.3-2.4-1.2.7-2.3,1.5-3.4,2.2l-.4.2c-1.5.8-.2,3.2,1.3,2.4,1.1-.6,2.2-1.5,3.4-2.2Zm-39.8-27.1-.3-.3c-1.2-1.3-3.1.7-1.9,2a55.15,55.15,0,0,0,10.2,7.8l.7.4c1.4.9,2.8-1.5,1.3-2.4l-1-.6a45.82,45.82,0,0,1-9-6.9Zm-72.5-2.6c1-1.4-1.2-2.8-2.2-1.5h0a27.69,27.69,0,0,1-3.6,4l-.2.2c-.8.7-2.2,2.2-3.3,2.3-1.7.2-1.7,2.9,0,2.8a8.48,8.48,0,0,0,4.4-2.5A24.9,24.9,0,0,0,345.81,430.22Zm139.3-10.1c1.2-1.2-.6-3.2-1.8-2h0c-2.3,2.3-5.5,2.9-8.5,3.7-1.6.4-.9,3.1.7,2.7l1.3-.4C479.81,423.32,482.81,422.42,485.11,420.12Zm-51.9-17.7c-1.6-.4-2.3,2.3-.7,2.7a39,39,0,0,1,8,3.1c1.5.8,2.8-1.6,1.3-2.4A37.59,37.59,0,0,0,433.21,402.42Zm26.8-58.9c0-.1.1-.3.2-.2,2.9,1.2,1.4,5.3.5,7.7l-.2.4a59.44,59.44,0,0,1-5.6,11.3,87.68,87.68,0,0,1-7.6,10.5c-1.2,1.4-2.4,2.8-3.7,4.2l-.5.5c-1.3,1.4-3,3.7-4.9,3.5a2.75,2.75,0,0,1-1.8-4.6,44.93,44.93,0,0,1,3.9-3.6c1.2-1.2,2.4-2.4,3.6-3.7a88.62,88.62,0,0,0,6.7-8.2,97.44,97.44,0,0,0,5.6-8.6l.3-.6C457.81,349.92,460.91,346.52,460,343.52Zm-104.1,29.3c-1.4-1-2.7,1.4-1.3,2.4,2.5,1.9,4.8,4.1,7.5,5.6a1.4,1.4,0,0,0,1.4-2.4h-.1C360.71,376.92,358.51,374.72,355.91,372.82Z" transform="translate(-280.21 -166.09)"/></g><g id="head_mono_Long-Bangs" data-name="head/mono/Long-Bangs"><path id="_-Background-2" data-name="ðŸŽ¨-Background" class="cls-1" d="M487.91,222.22c-3.7-13.4-17.9-19.2-30.6-20.1-34.5-3.6-69.6,15.6-84.9,46.8-12.2,23.7-12.6,48.6,13.7,62.1q2.1,1.2,4.5,2.4a34.65,34.65,0,0,0,4.2,3.4c14.3,9.4,31.9,13.5,49,12.6,25.2-.5,34.2-17.6,39.7-39.5,5.7-21.7,8.9-45.4,4.4-67.7Z" transform="translate(-280.21 -166.09)"/><path id="_-Ink-2" data-name="ðŸ–-Ink" class="cls-3" d="M504.41,348.22c-1.2-3.6-2.6-7-4-10.5a30.72,30.72,0,0,1-.5-5.3c-.2-6.3,1-12.7,2.3-18.8,2.7-12.5,5.5-24.8,7-37.5,2.6-22.7,1-46.4-9.3-67.1-9-18-24.1-32.7-43.7-38.2a89.35,89.35,0,0,0-17.8-2.9l-2.2-.3a112.79,112.79,0,0,0-25.3-1.3c-14,.9-27.9,4.9-39.5,12.9a59.26,59.26,0,0,0-24,33c-4,14.3-3.7,29.7-10.7,43.1-2.1,3.9-4.5,7.7-6.8,11.5-6.1,6.8-12.7,14.3-14.1,23.7-1.8,11.5,4.9,21.3,11.1,30.3,5.7,8.1,13.4,19.4,7.5,29.4-2.8,4.7-7.2,8.3-10.5,12.6a42.79,42.79,0,0,0-7.5,15.1,32.07,32.07,0,0,0,6.8,29.1,34.77,34.77,0,0,0,13.3,9.1c5.2,2.2,10.2,4.3,14.5,8.1a47.64,47.64,0,0,1,5.4,5.6,40.65,40.65,0,0,0,5.5,6.9c2.3,2.3,6.7-.9,4.6-3.6-.2-.2-.3-.4-.5-.6-1.5-2-3.1-4-4.7-5.9a33,33,0,0,1-4.3-25.8,31.25,31.25,0,0,1,2.6-6.6c.2.6.5,1.2.7,1.8a34.8,34.8,0,0,0,4.3,7.3,19.29,19.29,0,0,0,.8,4.7c2.8,9.5,12.4,14.2,20.9,17.8a26,26,0,0,0,2.5,1c2.2.9,4.6-2.3,3.2-4.2-.4-.5-.7-1-1.1-1.5A31.38,31.38,0,0,1,386,400c1.1-7.9,5.8-14.4,10.4-20.6s9.4-12.4,11.4-19.9c2.2-8.3.2-16.5-3.2-24.1-3.2-7-7.4-13.4-10.9-20.1,1.2,1.2,2.5,2.4,3.7,3.5a22.85,22.85,0,0,0,4.6,3.6,1.26,1.26,0,0,0,1.5-2,40.24,40.24,0,0,0-4.5-3.7c-1.4-1.2-2.8-2.4-4.1-3.7-1.6-1.6-3.2-3.2-4.7-4.9a79,79,0,0,1-3-9.4,50.53,50.53,0,0,1-2-13.4c.1-4.6,2.5-7.8,5.6-10.9,1.3-1.3,2.7-2.6,4.1-3.9,2.9-2.1,5.6-4.5,8.3-6.9,4.7-4.2,9.3-8.7,13.6-13.2,1.2-1.2,2.3-2.5,3.5-3.7,4-4.1,7.8-8.4,11.4-12.8a53.61,53.61,0,0,0,10.2-5l-4.2,4.2a84.76,84.76,0,0,1-10,8.9.38.38,0,0,0,.3.7,40.13,40.13,0,0,0,13-4.9,61.56,61.56,0,0,0,11.1-9.3,40.08,40.08,0,0,0,5.4-3.1c.1-.1.2-.1.3-.2-1.7,5.3-4.1,11.2-9.3,13.1-.2.1-.2.3,0,.3a16,16,0,0,0,10.7-5.1,63.21,63.21,0,0,0,6.4-5.2,75.3,75.3,0,0,0,5.6-5.7c-2.5,4.9-5.3,9.7-8,14.4-.1.3.2.6.4.4a45.39,45.39,0,0,0,13.7-14.9l1.5-2.7-1.2,4.2c-.8,2.5-1.6,5-2.3,7.6a27.4,27.4,0,0,1-1.5,4,10,10,0,0,0-1,2.9.1.1,0,0,0,.1.1c2.3-.6,4.4-3.2,6.1-4.8a35.84,35.84,0,0,0,2.6-2.9c.1,6,.2,12.1.1,18.1-.2,11.1-1,22.3-1.9,33.3-.8,9.8-1.4,20.1-6.9,28.6-4.2,6.6-11.1,11.2-18.6,13.4a14.62,14.62,0,0,1-2,.5c-10.8,2.6-21.6-.3-31.1-5.5a2.56,2.56,0,0,0-2.6,4.4,47.41,47.41,0,0,0,35.2,5.8c-.4,13.8,6.5,27,13.2,38.7,3.8,6.6,7.6,13.1,10.3,20.2a67.58,67.58,0,0,1,4.3,18.8,102.32,102.32,0,0,1-1.1,22.8c-.1.4-.1.8-.2,1.2-.2,1.6,1.2,3,2.8,2.1,7-3.7,10-11.5,11.8-18.7a132.37,132.37,0,0,0,3.5-20.6,73.16,73.16,0,0,1,2.3,8,5,5,0,0,1,.2,1.2c.5,2.3,3.9,2.1,4.5,0l.3-1.2a96,96,0,0,0,2.1-35.4,60.49,60.49,0,0,0-3.4-18.4" transform="translate(-280.21 -166.09)"/></g><g id="head_mono_Medium-Bangs-3" data-name="head/mono/Medium-Bangs-3"><path id="_-Background-3" data-name="ðŸŽ¨-Background" class="cls-1" d="M434.11,179.92c19.9,0,44.8,22.7,52.1,32.3,6.1,8.1,5.3,49.9,5.3,74.7,0,5.2-2.3,15-3.2,20-3.1,18.2-16.7,33.4-43.6,33.4-21.9,0-38.7-6.9-55-24.7-3.7-4-21.9,10.4-25.6,5.2-9.7,0-17.8-90.6,1.2-117.8S414.21,179.92,434.11,179.92Z" transform="translate(-280.21 -166.09)"/><path id="_-Ink-3" data-name="ðŸ–-Ink" class="cls-3" d="M374.31,186.32c11.5-10.5,26.8-15.5,42.2-15.1a78.09,78.09,0,0,1,23.5,4.3,63.11,63.11,0,0,1,10.9,5,21.64,21.64,0,0,1,3.5,2.4l.3.2h0a23.68,23.68,0,0,1,8.1,5.3,35.67,35.67,0,0,1,14.5,1.6,34.52,34.52,0,0,1,16.9,11.4c5,6.3,6.6,14,6,22l-.1,1.3c-.6,7-1.6,16-7.4,20.6a3.92,3.92,0,0,1-1.4.8,81.82,81.82,0,0,1,8.6,20.5c6.9,27.2,1.6,55.6-6.8,81.8-.7,2.2-4,3.6-5.6,1.5-3-3.8-7.3-6.7-12.1-7.2-3-.3-6,.3-8.8-1.1a7.9,7.9,0,0,1-3-2.5,38.5,38.5,0,0,1-15,2.5c-8.4-.3-17.3-3.2-23.1-9.6a3.39,3.39,0,0,1-.9-3.2,18,18,0,0,1,2.2-.6c7.3,4.3,15.4,7.2,24,7.4,5,.1,9.9-.6,13.9-3.7a17,17,0,0,0,2.4-2.2c8.5-5.5,14.5-14.7,17.3-24.6,2.6-9.2,2.3-18.9,1.4-28.4l-.5-5c-.7-7.3-1.3-14.7-1.5-22.1h.1c1.8-.1,1.8-2.9,0-2.8-4.7.3-9.3-.5-13.9-.1a23.64,23.64,0,0,0-.8-6.5c-.4-1.2-2.5-1.4-2.7,0a37.7,37.7,0,0,0-.4,5.8c-7-.1-13.9-.7-20.9-.4-1.3-1.4-1.7-3.8-2.3-5.5-.1-.2-.2-.5-.3-.7a36.75,36.75,0,0,1-2.3,7.1h-1.7c-9.7,0-19.6.3-29,2.3a3.7,3.7,0,0,1-1.2-2.2,77.85,77.85,0,0,0-3.4-15.2l-.2-.7c0-.1,0-.1-.1-.2a36,36,0,0,1-4.5,5.8,29.12,29.12,0,0,1-3.1,3l-3.1,3.4c0,.2.1.4.1.6a33.48,33.48,0,0,1-3.5,19.4l-.1.4a11.43,11.43,0,0,1-1.7,5,12.69,12.69,0,0,1,2.7,4.8c.5,1.6-1.8,3-2.9,1.7a12.62,12.62,0,0,0-3.1-2.6.37.37,0,0,1-.3.1c-3.1-1.7-8.5-1.2-11.6.4-3.9,2-5.4,6.2-5,10.5.4,4.1,2.2,8.8,5.6,10.9a5.17,5.17,0,0,0,4.5.6,5.3,5.3,0,0,0,1.5-.8l.3-.2a5.25,5.25,0,0,1,3.4-1.5,2.54,2.54,0,0,1,3.2,1.6v.1a6.74,6.74,0,0,1,.6,2.7,5.21,5.21,0,0,1-1.4,3.1l-.4.4c13.7,14.8,15.4,37.9,8.4,56.4a24.43,24.43,0,0,1-1,2.4c-1.2,2.7-5.7,1.9-6.3-.8l-.6-2.4c-.4-1.5-.8-2.9-1.3-4.4l-.2-.5-1.2-3.6v-.1c0-.1,0-.1-.1-.2l-.7,1.6h0l-2.2,4.7c-1,2.2-4.2,1-4.3-1.1v-1.3a39.85,39.85,0,0,0-1.4-8.4l-.3.4c-4.2,5.2-9.2,10.1-15.9,11.3-1.7.3-3.6-1.5-2.5-3.2.5-.7.9-1.4,1.4-2.2-.4-.2-.7-.4-1.1-.6a21.23,21.23,0,0,1-6.5-5.8c-3.8-5-5.1-11.2-5.4-17.3a58.66,58.66,0,0,1,2-19.5,52.38,52.38,0,0,1,3-7.8,1.45,1.45,0,0,1-.2-.7,106.26,106.26,0,0,1-3.2-11,104,104,0,0,1-2.8-22.9,108.89,108.89,0,0,1,7.2-40.7C355.91,208.72,363.71,195.92,374.31,186.32ZM367.91,307a1.39,1.39,0,0,0-2.4,1.4v.1c1.5,2.4,2.2,5.1,3.1,7.7.6,1.7,3.3,1,2.7-.7l-.2-.6A34.41,34.41,0,0,0,367.91,307Zm8.3-28.6.6-.3c2-1,3.7-1.6,6.1-.8,3.2,1.1,6.5,4.6,4.4,8.1a3.29,3.29,0,0,1-3.6,1.5c-2.4-.5-3-2.7-4.3-4.5l-.2-.3c-.7-1.1-1.7-2.6-2.9-3C376,279,375.81,278.52,376.21,278.42Zm1.7-72.8.2-.2c1.4-1.2-.6-3.2-2-2-6.2,5.5-8.3,14-11.5,21.3-.7,1.6,1.7,3.1,2.4,1.4,3.1-6.9,5.1-15.2,10.9-20.5Zm74.2-2.4c-1.6-.7-3,1.6-1.5,2.4h.1c5.4,2.5,7.8,8,10,13.2.7,1.7,3.1.2,2.4-1.4l-.4-.9C460.31,211.22,457.61,205.72,452.11,203.22Zm8.5-3.4c-1.7-.6-2.4,2.1-.7,2.7,4.6,1.6,7.8,5.1,10.5,9,1,1.5,3.4.1,2.4-1.4C469.61,205.62,465.91,201.72,460.61,199.82Z" transform="translate(-280.21 -166.09)"/></g><g id="face_Smile-LOL" data-name="face/Smile-LOL"><path id="_-Ink-4" data-name="ðŸ–-Ink" class="cls-3" d="M453.81,287.12c-.8-.6-.2-2.4,1.5-2.1,15.2,2.6,7.3,28.7-12,14.4-2.3-1.9.5-6,3-4.4,2.7,2.1,8.1,6.6,11.9,2.6C461.31,293.12,456.81,288.92,453.81,287.12Zm-19.4-33.6c.9,1,1.2,2.8,0,3.7-2,1.6-4.3,1-6.7,1.1a24.3,24.3,0,0,0-5.9,1c-4.2,1.2-7.7,3.4-11.3,5.9a.51.51,0,0,1-.7-.7A22.88,22.88,0,0,1,420,255a24.61,24.61,0,0,1,6.9-2.4l.7-.1C429.91,252,432.81,251.62,434.41,253.52Zm32.2-2.8.6.1c6.2,1.3,14.2,3.9,17.1,9.9.1.9,0,1-.1,1.2h0a1.13,1.13,0,0,1-.5.4c-.1,0-.2-.1-.3-.1a22,22,0,0,1-3.4-1.3l-1.1-.5c-1.3-.6-2.6-1.2-4-1.7a46.12,46.12,0,0,0-9.1-2,3.59,3.59,0,0,1-1.8-.7,3.07,3.07,0,0,1-1-1.5,2.67,2.67,0,0,1,.3-2.3,3.13,3.13,0,0,1,1.4-1.2A2.52,2.52,0,0,1,466.61,250.72Z" transform="translate(-280.21 -166.09)"/></g><path class="cls-3" d="M452.61,323.32a12.78,12.78,0,0,1-7.5,0,13.85,13.85,0,0,1-6.2-4,9.11,9.11,0,0,1-2.4-6,.85.85,0,0,1,.2-.6.71.71,0,0,1,.6-.3.88.88,0,0,1,.7.1.78.78,0,0,1,.4.4c.3.3.5.7.8,1,2,2.5,4,4.4,7.1,5.1a8.21,8.21,0,0,0,4.9-.4,11.56,11.56,0,0,0,4.3-3,2.23,2.23,0,0,1,1.7-.9,2.73,2.73,0,0,1,1.9.8,3.38,3.38,0,0,1,.9,1.9,3,3,0,0,1-.7,1.9A15.42,15.42,0,0,1,452.61,323.32Z" transform="translate(-280.21 -166.09)"/><path class="cls-3" d="M428.91,274.92a3.67,3.67,0,0,0-3.4-.3,10.13,10.13,0,0,0-3.9,3.9,7.89,7.89,0,0,0-1.3,4.5,1.22,1.22,0,0,1-.3.9.91.91,0,0,1-.7.3,2.2,2.2,0,0,1-.8-.1,1.31,1.31,0,0,1-.8-.6,9.51,9.51,0,0,1,.5-7c1.3-3,3.6-5.6,5.1-6.4a8.27,8.27,0,0,1,8.2,0,14.36,14.36,0,0,1,4.9,5.2,14.63,14.63,0,0,1,.9,1.3,2.42,2.42,0,0,1,.4,2.4,3.32,3.32,0,0,1-1.7,1.8,2.87,2.87,0,0,1-2.4,0,2.71,2.71,0,0,1-1.6-1.7,8.18,8.18,0,0,0-3.1-4.2Z" transform="translate(-280.21 -166.09)"/><path class="cls-3" d="M477.81,278.32a2.54,2.54,0,0,1-1.9.2,2.59,2.59,0,0,1-1.1-.7,2.38,2.38,0,0,1-.6-1.1,4.69,4.69,0,0,0-1.6-2.7,3.34,3.34,0,0,0-2.6-.7,5.1,5.1,0,0,0-2.8,1.7l-.6.9a4.43,4.43,0,0,1-1.2,1.5,1.08,1.08,0,0,1-.7.3h-.3a3.07,3.07,0,0,1-1.2-2.7,5.08,5.08,0,0,1,.9-2.5,9.41,9.41,0,0,1,5.2-3.7,7.67,7.67,0,0,1,6.1,1.3,9.18,9.18,0,0,1,3.6,5.4,2.92,2.92,0,0,1-.1,1.6A2.54,2.54,0,0,1,477.81,278.32Z" transform="translate(-280.21 -166.09)"/></svg>