<svg id="Layer_1" data-name="Layer 1" xmlns="http://www.w3.org/2000/svg" viewBox="0 0 257.58 410.71"><defs><style>.cls-1{fill:#fff;}.cls-1,.cls-2,.cls-3{fill-rule:evenodd;}.cls-3{fill:#d24427;}</style></defs><g id="body_mono_Tee-1" data-name="body/mono/Tee-1"><path id="_-Background" data-name="ðŸŽ¨-Background" class="cls-1" d="M246.91,359.15q-1.95-11.44-3.6-22.9c-.5-3.61-1-7.32-1.5-10.93-.3-2.58-.8-5.47.9-7.33,2.4-2.68,4.5-4.95,4.8-8.76.3-3.61-.9-7.53-1.6-11-1.5-7.33-3.5-14.55-5.6-21.66s-4.5-14.44-6.9-21.67a196.19,196.19,0,0,0-7.3-19.9c-5.5-12.28-14.9-21.25-26.5-27.34-2.9-1.55-8.8-6.91-11.8-8-2.8-1.14-2.8,2.16-5.5.92a10.51,10.51,0,0,1-5.4-4.43c-1.3-2.37-4.6-5.67-5.2-8.36-1.1-5.77.1-10.72-3.9-15.16a29.13,29.13,0,0,0-13.3-7.94c-10.9-3.1-25.5-.93-32.1,9.49-3.1,5-4.2,11-8.5,15.16-3.7,3.61-2.9,6-7.7,7.84-.3.1-7.6-1.55-7.9-1.44-5.3-1.14-10.3,2.06-15.1,4a105.87,105.87,0,0,0-20.5,10.83,129.73,129.73,0,0,0-33.2,33A165.29,165.29,0,0,0,8,286.22c-1.2,3.72-2.4,7.43-3.3,11.25-.5,2.06-1.1,4.33-.5,6.49a8.07,8.07,0,0,0,3.2,4.13c1.9,1.45,5.8,2.37,5.7,5.26-.1,2.17-.8,4.54-1.1,6.71-.4,2.58-.8,5.15-1.1,7.84-1.6,11.86-2.8,23.72-3.3,35.69-.5,11.76-1,23.72-.2,35.48a6.15,6.15,0,0,0,.6,2.06c-.3.11-.4.83.1.83.3.1.6.1.9.21a4.17,4.17,0,0,0,2.3.82,10.87,10.87,0,0,1,1.8.1c6.3,1.34,12.5,2.58,18.9,3.61,7.7,1.14,15.5,2.17,23.2,2.89,16,1.65,31.8,1,47.8.21s31.9-1,47.9-.62,32,1.13,47.9,1.44c17.9.31,35.7-.2,53.5-1.65a3.79,3.79,0,0,0,3.5-4.74C252.81,389.06,249.51,374.21,246.91,359.15Z"/><path id="_-Ink" data-name="ðŸ–-Ink" class="cls-2" d="M93.31,195.14a28.11,28.11,0,0,1,5,.41c.1,0,.2.21,0,.31-2.9.62-5.9,1.55-8.8,2.37l-1.2.42c-3.3,1-6.4,2.06-9.6,3.4a85.54,85.54,0,0,0-17.8,10.32c-21.2,15.78-36.6,39.81-46.2,64.57A183.24,183.24,0,0,0,8,297.57c-.4,1.75-.9,3.4-1.2,5.16-.1.51-.6,1.75-.3,2.27s1.2.72,1.6.92l1.5.83c2.9,1.55,7.7,4,8.2,4.33l.8.42c12.3,6.18,25.5,11.55,39.3,11.86l.1-1.24h0A115.18,115.18,0,0,1,61.21,302c.1-.31.5-.21.6.1,1,7.73.7,15.57.3,23.31-.6,13.82-1.4,27.54-2.1,41.36-.4,6.92-.8,13.83-1.2,20.63s-.6,13.93-1.5,20.84a2.85,2.85,0,0,1-3.3,2.17,3.06,3.06,0,0,1-2.6-3c0-4,.5-8.05.7-12s.5-7.53.8-11.35c1-13.82,2.2-27.54,3.3-41.26.4-4.85.8-9.8,1.2-14.64-14.7-.52-28.4-6.09-41.5-12.69-.2,4.43-.6,8.87-1.1,13.3-1.2,12.28-2.3,24.66-3.1,37-.4,6.29-.7,12.48-1,18.77-.1,3.09-.2,6.19-.3,9.18,0,1-.1,2.06-.1,3.09v2.38a4.79,4.79,0,0,1-1.4,3.92,2.9,2.9,0,0,1-4.1,0c-1.6-1.55-1.3-3.72-1.3-5.78,0-1.75.1-3.51.1-5.26.1-3.51.3-7,.4-10.52.6-12.28,1.8-24.45,3.4-36.62l.6-4.75c1.2-8.76,2.4-17.63,5.1-26.09l-3-1.55c-1.8-.93-3.6-1.86-5.4-2.89a5.89,5.89,0,0,1-3-3.61c-.4-1.86.2-3.82.7-5.67v-.21c.4-1.86.9-3.61,1.4-5.36A189.82,189.82,0,0,1,11,273.54a176,176,0,0,1,22-39.2c8.1-10.83,17.6-20.53,28.8-27.85a74.74,74.74,0,0,1,17.5-8.56,45.74,45.74,0,0,1,9-2.17A29.91,29.91,0,0,1,93.31,195.14Zm29.3-22.07c2-2.17,5.9.1,4.9,3-2.2,6.81-5.7,13-11.3,17.43-5.2,4.23-11.4,6.91-18,6.29h-.1l.6.83c4.5,6.29,9.2,12.48,15,17.64,11.7,10.41,27.5,16.09,42.9,12.06,12.1-3.19,22.7-13,25.8-25.47a2.1,2.1,0,0,1-1.6.1c-2.5-.52-5-3.3-6.6-5.26a25,25,0,0,1-4.1-6.91c-1.8-4.75-2.4-10.73.1-15.27.3-.51,1-.21,1.1.31l.1.83c.5,4.23,1.1,8.35,3,12.27a30.46,30.46,0,0,0,3.5,5.36,25.67,25.67,0,0,0,2.4,2.38c.8.72,1.9,1.24,2.6,2l.1.1h0a2.37,2.37,0,0,1,2.5-2.37,6.55,6.55,0,0,1,2.9.82h0a108.75,108.75,0,0,1,21.1,14c13.6,11.25,23.8,25.89,28.7,43.22,2.4,8.46,3.8,17.23,5.3,25.89l.9,5.37c1.4,8,2.9,16.19,6,23.72a3.2,3.2,0,0,1-1.8,4.54c-2.4.93-4.9,1.86-7.4,2.79,1.2,5.36,1.9,10.83,2.9,16.29,1.9,11.45,4.3,22.8,6.3,34.15,1,5.88,2,11.65,3,17.53.5,2.79,1,5.57,1.5,8.46.3,1.55.5,3,.8,4.54v.21a6.85,6.85,0,0,1,.1,2.47,4.24,4.24,0,0,1-1.6,2.17,1.61,1.61,0,0,1-1.9.2l-.2-.1a3.71,3.71,0,0,1-2.4-2.37c-.2-.83-.3-1.76-.5-2.58-.3-1.65-.6-3.2-.9-4.85-.6-3.2-1.1-6.5-1.6-9.8l-.5-3.09c-1.7-10.52-3.3-21.05-4.2-31.67-.4-4.74-.8-9.39-1.1-14.13l-.3-3.51c-.4-4.43-.8-9.08-.9-13.51l-1.5.51h0l-7.2,2.58h0c-1.8.62-4,2-6,1.76a3.71,3.71,0,0,1-2.2-.93q1,14.38,2.7,28.78c1.1,8.66,2.3,17.43,3.7,26,.7,4.33,1.4,8.56,2.2,12.79.4,2.17.8,4.23,1.2,6.4.2,1,.5,2.16.6,3.2a3.64,3.64,0,0,1-.8,3,1.88,1.88,0,0,1-2.5.72,3.93,3.93,0,0,1-2.1-2.79c-.3-1.23-.5-2.58-.7-3.81-.4-2.38-.9-4.64-1.3-7-.9-4.95-1.7-9.8-2.4-14.75-2.5-17.43-4.1-35-4.9-52.5-.4-8.67-.5-17.33-.5-26,0-4.43.2-8.87.5-13.3s1-8.87,1.5-13.31c0-.21.2-.21.2,0,.3,4.95.7,10,.9,15,.2,4.74.3,9.59.4,14.34q.3,9.43.9,18.87a2.89,2.89,0,0,1,2.8-1,40.31,40.31,0,0,0,4.6-1.65l5.4-1.86h0c2.9-1,5.7-2,8.6-2.88a225.58,225.58,0,0,1-5.8-27.13l-.7-4.13a193.13,193.13,0,0,0-5.1-24,78.29,78.29,0,0,0-11.3-22.9,123.21,123.21,0,0,0-17.1-18.57c-5.3-4.85-10.9-9.18-16.3-13.93a1.83,1.83,0,0,1,0,1,39.23,39.23,0,0,1-11.6,22.69c-12.3,12.07-30.4,14.54-46.1,8.87-15.2-5.47-28.6-18.36-33.3-34.45a.23.23,0,0,1,.4-.21c.3.41.5.72.8,1.14a.81.81,0,0,1,.2-.42,40.89,40.89,0,0,0,15.1-9.8,36.17,36.17,0,0,0,5.2-7.22,19.14,19.14,0,0,0,1.7-3.92l.1-.31C120.91,176.16,121.41,174.41,122.61,173.07Z"/></g><g id="head_mono_Long-Bangs" data-name="head mono Long-Bangs"><path id="_-Background-2" data-name=" -Background-2" class="cls-1" d="M207.7,56.13c-3.7-13.4-17.9-19.2-30.6-20.1-34.5-3.6-69.6,15.6-84.9,46.8-12.2,23.7-12.6,48.6,13.7,62.1q2.1,1.2,4.5,2.4a34.3,34.3,0,0,0,4.2,3.4c14.3,9.4,31.9,13.5,49,12.6,25.2-.5,34.2-17.6,39.7-39.5,5.7-21.7,8.9-45.4,4.4-67.7Z"/><path id="_-Ink-2" data-name=" -Ink-2" class="cls-2" d="M224.2,182.13c-1.2-3.6-2.6-7-4-10.5a30.39,30.39,0,0,1-.5-5.3c-.2-6.3,1-12.7,2.3-18.8,2.7-12.5,5.5-24.8,7-37.5,2.6-22.7,1-46.4-9.3-67.1-9-18-24.1-32.7-43.7-38.2a89.35,89.35,0,0,0-17.8-2.9l-2.2-.3A112.79,112.79,0,0,0,130.7.23c-14,.9-27.9,4.9-39.5,12.9a59.28,59.28,0,0,0-24,33c-4,14.3-3.7,29.7-10.7,43.1-2.1,3.9-4.5,7.7-6.8,11.5-6.1,6.8-12.7,14.3-14.1,23.7-1.8,11.5,4.9,21.3,11.1,30.3,5.7,8.1,13.4,19.4,7.5,29.4-2.8,4.7-7.2,8.3-10.5,12.6a42.71,42.71,0,0,0-7.5,15.1,32.07,32.07,0,0,0,6.8,29.1A34.84,34.84,0,0,0,56.3,250c5.2,2.2,10.2,4.3,14.5,8.1a47.61,47.61,0,0,1,5.4,5.6,40.65,40.65,0,0,0,5.5,6.9c2.3,2.3,6.7-.9,4.6-3.6-.2-.2-.3-.4-.5-.6-1.5-2-3.1-4-4.7-5.9a33,33,0,0,1-4.3-25.8,31.25,31.25,0,0,1,2.6-6.6c.2.6.5,1.2.7,1.8a34.58,34.58,0,0,0,4.3,7.3,19.28,19.28,0,0,0,.8,4.7c2.8,9.5,12.4,14.2,20.9,17.8a25.54,25.54,0,0,0,2.5,1c2.2.9,4.6-2.3,3.2-4.2-.4-.5-.7-1-1.1-1.5a31.43,31.43,0,0,1-4.91-21.12c1.1-7.9,5.8-14.4,10.4-20.6s9.4-12.4,11.4-19.9c2.2-8.3.2-16.5-3.2-24.1-3.2-7-7.4-13.4-10.9-20.1,1.2,1.2,2.5,2.4,3.7,3.5a22.92,22.92,0,0,0,4.6,3.6,1.26,1.26,0,0,0,1.5-2,39.85,39.85,0,0,0-4.5-3.7c-1.4-1.2-2.8-2.4-4.1-3.7-1.6-1.6-3.2-3.2-4.7-4.9a79.61,79.61,0,0,1-3-9.4,50.25,50.25,0,0,1-2-13.4c.1-4.6,2.5-7.8,5.6-10.9,1.3-1.3,2.7-2.6,4.1-3.9,2.9-2.1,5.6-4.5,8.3-6.9,4.7-4.2,9.3-8.7,13.6-13.2,1.2-1.2,2.3-2.5,3.5-3.7,4-4.1,7.8-8.4,11.4-12.8a53.59,53.59,0,0,0,10.2-5l-4.2,4.2a84.46,84.46,0,0,1-10,8.9.38.38,0,0,0,.3.7h0a40.16,40.16,0,0,0,13-4.9,61.35,61.35,0,0,0,11.1-9.3,40.13,40.13,0,0,0,5.4-3.1c.1-.1.2-.1.3-.2-1.7,5.3-4.1,11.2-9.3,13.1-.2.1-.2.3,0,.3a16,16,0,0,0,10.7-5.1,63.73,63.73,0,0,0,6.4-5.2,73.45,73.45,0,0,0,5.6-5.7c-2.5,4.9-5.3,9.7-8,14.4-.1.3.2.6.4.4a45.45,45.45,0,0,0,13.7-14.9l1.5-2.7-1.2,4.2c-.8,2.5-1.6,5-2.3,7.6a28.29,28.29,0,0,1-1.5,4,10,10,0,0,0-1,2.9.09.09,0,0,0,.1.1h0c2.3-.6,4.4-3.2,6.1-4.8a35.64,35.64,0,0,0,2.6-2.9c.1,6,.2,12.1.1,18.1-.2,11.1-1,22.3-1.9,33.3-.8,9.8-1.4,20.1-6.9,28.6-4.2,6.6-11.1,11.2-18.6,13.4a15,15,0,0,1-2,.5c-10.8,2.6-21.6-.3-31.1-5.5a2.56,2.56,0,0,0-2.6,4.4,47.44,47.44,0,0,0,35.2,5.8c-.4,13.8,6.5,27,13.2,38.7,3.8,6.6,7.6,13.1,10.3,20.2a67.86,67.86,0,0,1,4.3,18.8,102.37,102.37,0,0,1-1.1,22.8c-.1.4-.1.8-.2,1.2-.2,1.6,1.2,3,2.8,2.1,7-3.7,10-11.5,11.8-18.7a131.75,131.75,0,0,0,3.5-20.6,71.61,71.61,0,0,1,2.3,8,4.86,4.86,0,0,1,.2,1.2c.5,2.3,3.9,2.1,4.5,0l.3-1.2a96.15,96.15,0,0,0,2.1-35.4,60.47,60.47,0,0,0-3.4-18.4"/></g><g id="head_mono_Medium-Bangs-3" data-name="head mono Medium-Bangs-3"><path id="_-Background-3" data-name=" -Background-3" class="cls-1" d="M153.9,13.83c19.9,0,44.8,22.7,52.1,32.3,6.1,8.1,5.3,49.9,5.3,74.7,0,5.2-2.3,15-3.2,20-3.1,18.2-16.7,33.4-43.6,33.4-21.9,0-38.7-6.9-55-24.7-3.7-4-21.9,10.4-25.6,5.2-9.7,0-17.8-90.6,1.2-117.8S134,13.83,153.9,13.83Z"/><path id="_-Ink-3" data-name=" -Ink-3" class="cls-2" d="M94.1,20.23c11.5-10.5,26.8-15.5,42.2-15.1a78.12,78.12,0,0,1,23.5,4.3,63.52,63.52,0,0,1,10.9,5,21.92,21.92,0,0,1,3.5,2.4l.3.2h0a23.61,23.61,0,0,1,8.1,5.3,35.63,35.63,0,0,1,14.5,1.6A34.56,34.56,0,0,1,214,35.33c5,6.3,6.6,14,6,22l-.1,1.3c-.6,7-1.6,16-7.4,20.6a4,4,0,0,1-1.4.8,81.69,81.69,0,0,1,8.6,20.5c6.9,27.2,1.6,55.6-6.8,81.8-.7,2.2-4,3.6-5.6,1.5-3-3.8-7.3-6.7-12.1-7.2-3-.3-6,.3-8.8-1.1a8,8,0,0,1-3-2.5,38.56,38.56,0,0,1-15,2.5c-8.4-.3-17.3-3.2-23.1-9.6a3.39,3.39,0,0,1-.9-3.2,16.63,16.63,0,0,1,2.2-.6c7.3,4.3,15.4,7.2,24,7.4,5,.1,9.9-.6,13.9-3.7a16.66,16.66,0,0,0,2.4-2.2c8.5-5.5,14.5-14.7,17.3-24.6,2.6-9.2,2.3-18.9,1.4-28.4l-.5-5c-.7-7.3-1.3-14.7-1.5-22.1h.1c1.8-.1,1.8-2.9,0-2.8-4.7.3-9.3-.5-13.9-.1a23.4,23.4,0,0,0-.8-6.5c-.4-1.2-2.5-1.4-2.7,0a37.53,37.53,0,0,0-.4,5.8c-7-.1-13.9-.7-20.9-.4-1.3-1.4-1.7-3.8-2.3-5.5-.1-.2-.2-.5-.3-.7a36.12,36.12,0,0,1-2.3,7.1h-1.7c-9.7,0-19.6.3-29,2.3a3.71,3.71,0,0,1-1.2-2.2,77.54,77.54,0,0,0-3.4-15.2l-.2-.7c0-.1,0-.1-.1-.2a36.6,36.6,0,0,1-4.5,5.8,28.33,28.33,0,0,1-3.1,3l-3.1,3.4c0,.2.1.4.1.6a33.44,33.44,0,0,1-3.5,19.4l-.1.4a11.42,11.42,0,0,1-1.7,5,12.69,12.69,0,0,1,2.7,4.8c.5,1.6-1.8,3-2.9,1.7a12.47,12.47,0,0,0-3.1-2.6.37.37,0,0,1-.3.1c-3.1-1.7-8.5-1.2-11.6.4-3.9,2-5.4,6.2-5,10.5.4,4.1,2.2,8.8,5.6,10.9a5.2,5.2,0,0,0,4.5.6,5,5,0,0,0,1.5-.8l.3-.2a5.24,5.24,0,0,1,3.4-1.5,2.54,2.54,0,0,1,3.2,1.6v.1a6.81,6.81,0,0,1,.6,2.7,5.24,5.24,0,0,1-1.4,3.1l-.4.4c13.7,14.8,15.4,37.9,8.4,56.4a22.9,22.9,0,0,1-1,2.4c-1.2,2.7-5.7,1.9-6.3-.8l-.6-2.4c-.4-1.5-.8-2.9-1.3-4.4l-.2-.5-1.2-3.6v-.1c0-.1,0-.1-.1-.2l-.7,1.6h0l-2.2,4.7c-1,2.2-4.2,1-4.3-1.1v-1.3a39.85,39.85,0,0,0-1.4-8.4l-.3.4c-4.2,5.2-9.2,10.1-15.9,11.3-1.7.3-3.6-1.5-2.5-3.2.5-.7.9-1.4,1.4-2.2-.4-.2-.7-.4-1.1-.6a21.23,21.23,0,0,1-6.5-5.8c-3.8-5-5.1-11.2-5.4-17.3a58.58,58.58,0,0,1,2-19.5,51.88,51.88,0,0,1,3-7.8,1.42,1.42,0,0,1-.2-.7,108,108,0,0,1-3.2-11,104,104,0,0,1-2.8-22.9,108.82,108.82,0,0,1,7.2-40.7C75.7,42.63,83.5,29.83,94.1,20.23ZM87.7,140.91a1.39,1.39,0,0,0-2.4,1.4v.1c1.5,2.4,2.2,5.1,3.1,7.7.6,1.7,3.3,1,2.7-.7l-.2-.6A34.54,34.54,0,0,0,87.7,140.91Zm8.3-28.6.6-.3c2-1,3.7-1.6,6.1-.8,3.2,1.1,6.5,4.6,4.4,8.1a3.3,3.3,0,0,1-3.6,1.5c-2.4-.5-3-2.7-4.3-4.5L99,116c-.7-1.1-1.7-2.6-2.9-3-.31-.1-.5-.58-.1-.68Zm1.7-72.8.2-.2c1.4-1.2-.6-3.2-2-2-6.2,5.5-8.3,14-11.5,21.3-.7,1.6,1.7,3.1,2.4,1.4C89.9,53.11,91.9,44.81,97.7,39.51Zm74.2-2.4c-1.6-.7-3,1.6-1.5,2.4h.1c5.4,2.5,7.8,8,10,13.2.7,1.7,3.1.2,2.4-1.4l-.4-.9c-2.4-5.28-5.1-10.78-10.6-13.28Zm8.5-3.4c-1.7-.6-2.4,2.1-.7,2.7,4.6,1.6,7.8,5.1,10.5,9,1,1.5,3.4.1,2.4-1.4-3.2-4.48-6.9-8.38-12.2-10.28Z"/></g><g id="accessories_Glasses-2" data-name="accessories/Glasses-2"><path id="_-Ink-2-2" data-name="ðŸ–-Ink" class="cls-3" d="M209.92,124.73a17.78,17.78,0,0,1-19.11,3.69c-16.25-6.83-8.31-28.06,4.25-33.69,1.56-.37,3.69-1.29,5.53-1.57.19-.09.56.19,1-.09,13.84,1.57,17.07,23.08,8.31,31.66M157.4,126c-5.36,7.11-15.33,9.33-23.45,6-16.06-6.27-10.34-25.1.65-32.49,23.17-8.77,32.76,13.39,22.8,26.49m-34.8-15.78h0c0-.09.09-.09.18-.09a.31.31,0,0,1-.09.18.09.09,0,0,1-.09-.09m98.3-7.66c-1.29,0-3.23.18-4.25,1.11-2.67-9-12.55-17.36-21.13-11.26a23.8,23.8,0,0,0-14.59,13.38c-5.17-3-13.2-1.75-17.63,2.31-3-9.6-10.06-13-18.64-13.48-9.32-1.57-18.65,7.57-21.51,14.77-2.4-.28-6-1-8.31.46-14.76-3.88-40.52-6-43.47-3.88-2.12.83-3.32,5.82-.37,6.1,2.59-.37-.28-3.7,2.31-4.07,13.94-.83,27.5,1.94,41.26,3.14,1.2,1.66,5.17,2.22,7.29,1.57-3.32,12.37,3.88,20.68,14.68,23.26,16.79,3.88,31.29-11.17,27-26.77,5.07-2.49,10.89-2.4,16.43-1.1-9.23,34,45.5,32.49,37-3.33,5.72,3,7-1.57,4-2.21"/></g><g id="face_Smile" data-name="face/Smile"><path id="_-Ink-3-2" data-name="ðŸ–-Ink" class="cls-2" d="M164.93,160a15.71,15.71,0,0,1-6.68-5.14,3.1,3.1,0,0,1-.62-2.37,3.27,3.27,0,0,1,1.34-2.16,2.92,2.92,0,0,1,2.36-.62,3.2,3.2,0,0,1,2.06,1.34l.1.21a11.4,11.4,0,0,0,3.81,3.19,8.33,8.33,0,0,0,4.73.82c3.19-.41,5.45-2.06,7.82-4.42l.92-.93c.21-.31.41-.51.72-.51a1.65,1.65,0,0,1,1,0,1.53,1.53,0,0,1,.82.61,1.06,1.06,0,0,1,.21.93,10.43,10.43,0,0,1-3.29,6.38,16.19,16.19,0,0,1-7.2,3.7,15.66,15.66,0,0,1-8.13-1Zm9.47-37.65c3,1.75,7.4,6,4.21,10.39-3.7,3.91-9.15-.61-11.72-2.57-2.47-1.54-5.25,2.47-3,4.32,19.14,14.2,26.95-11.62,11.94-14.19C174.19,120,173.57,121.72,174.4,122.33ZM140,105.88c.31-4,6.48-4.94,7.1-.93A16.35,16.35,0,0,1,145.39,115c-1.54,3.09-5.45,1.65-5.76-1.13C139.32,110.09,139.94,108.34,140,105.88Zm46.9-1.86a3.28,3.28,0,0,1,3.6-1.44c4.63,1.34,3.3,7.92,1.65,11.11a3.21,3.21,0,0,1-5,.62c-2.06-2.47-3.09-7.51-.41-10A1.7,1.7,0,0,1,186.94,104ZM145.39,88.18l.72-.1c2.26-.41,5-.72,6.68,1,.83.93,1.14,2.78,0,3.7-2,1.65-4.21,1-6.68,1.13a22.41,22.41,0,0,0-5.76,1c-4.22,1.24-7.61,3.4-11.21,5.76-.52.31-.93-.31-.72-.72a22.77,22.77,0,0,1,10.08-9.36A21.58,21.58,0,0,1,145.39,88.18Zm37.34-1.85.51.11c6.07,1.23,14,3.8,17,9.77.11.82,0,1-.1,1.13h0a.72.72,0,0,1-.51.31.36.36,0,0,1-.31-.11,14.43,14.43,0,0,1-3.4-1.33l-1.13-.52a26.44,26.44,0,0,0-3.91-1.64,43.13,43.13,0,0,0-8.95-2,3.32,3.32,0,0,1-1.74-.72,2.69,2.69,0,0,1-1-1.54,2.84,2.84,0,0,1,.31-2.26,2.41,2.41,0,0,1,1.44-1.24A5.73,5.73,0,0,1,182.73,86.33Z"/></g></svg>