<svg id="Layer_1" data-name="Layer 1" xmlns="http://www.w3.org/2000/svg" viewBox="0 0 257.58 410.71"><defs><style>.cls-1{fill:#fff;}.cls-1,.cls-2{fill-rule:evenodd;}</style></defs><g id="body_mono_Dress" data-name="body/mono/Dress"><path id="_-Background" data-name="ðŸŽ¨-Background" class="cls-1" d="M239.15,384.31c-.78-7.36-1.26-14.78-1.53-22.18s.08-14.88.24-22.28c.32-15.05.84-30.13-.33-45.16a205,205,0,0,0-7.65-41.94c-1.95-6.65-4-13.56-7.21-19.7s-8.33-10.29-13.94-14.06c-6-4-11.91-8.1-17.86-12.15-5-3.4-14-7.36-18.08-11.9-4.31-4.79-5.12-16.64-8-22.31-2.79-5.52-10.71-9.12-16.81-9.12-10.09,0-17.74-.53-26,9-4.14,4.77-.85,9.6-5.19,14.18-4,4.21-14.19,8.53-19.33,11-6.16,2.92-12.48,5.5-18.88,7.8s-13.24,4.1-19.81,6.32c-6.3,2.12-14.52,10.87-19.41,15.5-4.55,4.31-5.67,3.83-9.13,9.06C22.61,247.86,15,259.47,9,271.9c-3,6.19-5.92,12.7-7,19.57C.8,298.81,2,305.89,3.85,313s8,14.11,10,21.32c.92,3.32-2.23,6.94-.78,10.07a22.54,22.54,0,0,0,2.67,4.32c.8,1.05,3.91.82,4.31,2.1s-1.84,4-1.88,5.33c-.05,1.92-.12,3.85-.18,5.77l-.37,11.36q-.35,11.19-.71,22.39a26,26,0,0,0,.38,7.13,4,4,0,0,1-.58-.65.69.69,0,0,0-1.19.71,7.41,7.41,0,0,0,3.06,3c1.45,2.2,221.81,7.11,222.9.68.61-3.6-.5-7.46-.94-11C240.09,391.77,239.54,388.05,239.15,384.31Z"/><path id="_-Ink" data-name="ðŸ–-Ink" class="cls-2" d="M15.3,291.49c.54-1.58,3-.9,2.46.69C15,300.37,17,309.28,20,317.1c.6,1.57-1.87,2.24-2.47.69-3.17-8.22-5.13-17.7-2.2-26.3M34,338.26c7.87,1.13,15.75,1.83,23.67,2.4a1.85,1.85,0,0,0,.93-.15q-.36,5.58-.58,11.16c-2.16-.06-4.36.09-6.51,0q-4.2-.12-8.38-.44c-5.41-.42-10.81-1.09-16.15-2A58.17,58.17,0,0,1,20.17,348a7.77,7.77,0,0,1-5.07-3.72,12.85,12.85,0,0,1-1-5.66c0-1.3.22-2.61.35-3.92a2.4,2.4,0,0,0,.43-.41c2.37.76,4.84,1.3,7.25,1.83,3.93.85,7.91,1.55,11.89,2.12M29.57,308a13.19,13.19,0,0,0,2,6.87,1.28,1.28,0,0,1-2.2,1.32A15.72,15.72,0,0,1,27,308a1.28,1.28,0,0,1,2.55,0m201.76,27.26,3.21.16a4,4,0,0,0,3.44,1c0,.11.07.23.11.36a25.66,25.66,0,0,1,.44,2.6q.18,1.28.27,2.55c0,.43.24,1.39,0,1.77s-.74.3-1.09.35c-.94.1-1.9.15-2.85.23l-5.39.48a31.64,31.64,0,0,0-5.41.58q-.43-5.3-.81-10.6c2.67.4,5.45.39,8.1.54M7.87,329.43c1.07,2.12,2.06,4.21,4.11,5.48a2.12,2.12,0,0,0,.88.28c-.23,1-.37,2-.5,3a17.16,17.16,0,0,0,.17,6.35,8.9,8.9,0,0,0,3,5.11,10.26,10.26,0,0,0,2.45,1.43,3,3,0,0,0-.19,1.3c-.21,1.07-.34,2.15-.49,3.2-.33,2.31-.66,4.63-.92,7-.52,4.63-.92,9.26-1.26,13.9s-.59,9.27-.79,13.92c-.11,2.37-.2,4.74-.29,7.12s-.47,4.94.58,7.21a2.65,2.65,0,0,0,4.6,0c1.12-2.2.79-4.8.82-7.21s.07-4.53.11-6.8c.1-4.64.24-9.27.35-13.91s.24-9.06.33-13.58c.05-2.38.05-4.75.06-7.12,0-1.31.07-2.71,0-4.08.8.19,1.6.35,2.4.52a162.69,162.69,0,0,0,18.36,2.78q4.65.44,9.32.6c2.29.09,4.66.25,7,.16q-.29,8.52-.26,17,0,6.14.16,12.29c0,2.15.1,4.31.16,6.46,0,1,0,1.95.09,2.91a8.47,8.47,0,0,0,.12.88c-.21.61-.39,1.22-.53,1.78a22.35,22.35,0,0,0-.39,8.19c.27,2.37,2.22,4.57,4.79,3.74l1.26-.42c3.79.44,7.6.54,11.45.61,5.62.12,11.24.15,16.87.18q16.55.09,33.09.12l66.52.2,18.46.05c3.19,0,6.37,0,9.55.14,1.48.06,3,.14,4.46.16a16.68,16.68,0,0,0,4.88-.94,1.64,1.64,0,0,0,1.1-2,3.19,3.19,0,0,0,3.8-2.13,5.29,5.29,0,0,0-.32-3.75h0c-1.07-6.9-2.42-13.76-3.48-20.66-1.17-7.55-2.29-15.12-3.27-22.71-.75-5.73-1.36-1.67-1.88-7.42,2.29.18,4.89-.53,7.16-.84,1.63-.21,3.28-.39,4.91-.62-.12,1.69-.09,3.41-.13,5-.09,3.21,0,6.41,0,9.63.15,6.2.5,2.59,1,8.77s1.23,12.42,2,18.61q.63,4.79,1.35,9.55c.22,1.48.44,3,.68,4.45.27,1.75.36,3.41,1.64,4.72a2.28,2.28,0,0,0,3.61-.48c.82-1.75.45-3.26.14-5.1-.24-1.48-.48-3-.71-4.44-.5-3.18-1-6.35-1.41-9.54-.86-6.13-1.67-12.27-2.39-18.41s-1.48-2.58-2.2-8.77c-.36-3.13-.72-6.25-1.14-9.36-.21-1.61-.35-3.31-.63-5l.27-.05a4.79,4.79,0,0,0,4.09-3.53c.46-2-.09-4.21-.48-6.13-.34-1.64-.64-3.73-1.67-5.13,3.62-4.73,6-10.69,7.49-16.41a83.22,83.22,0,0,0,2.47-19.19,116.54,116.54,0,0,0-1.63-22.18c0-1.55-.1-3.09-.21-4.64-1.1-15.15-5.71-33.09-20.32-40.18l-.18-.08c-1.15-1.4-2.58-2.66-3.73-3.84a78.64,78.64,0,0,0-6.45-5.94,81.84,81.84,0,0,0-14.53-9.19c-5.17-2.66-10.42-5.15-15.48-8.05a69.19,69.19,0,0,1-12.13-9,27.79,27.79,0,0,1-8.42-14.78c-.06-.29-.49-.21-.5.07-.31,10.44,6.57,19.65,14.48,25.49,9.46,7,20.88,10.26,30.48,17a60.65,60.65,0,0,1,6.74,5.58,24.45,24.45,0,0,0-9.62.8c-1.2-.08-2.4-.1-3.6-.16l-8.27-.4q-8.42-.37-16.84-.69-16.54-.6-33.07-.9c-22.16-.4-44.34-.48-66.49.18-6,.18-37.59-1-40.52-.7a63.74,63.74,0,0,1,14.21-9.49,116.19,116.19,0,0,1,20.12-7.27c14.27-4,29.09-7.88,40.51-18.07a41.88,41.88,0,0,0,7.42-8.67c2-3.08,4.17-7,4.22-10.78a2.62,2.62,0,0,0-4.87-1.36,47,47,0,0,0-1.85,4.46,33.26,33.26,0,0,1-2.29,4.24,37.33,37.33,0,0,1-6.06,7.2A55.46,55.46,0,0,1,95,197.67c-13.83,5.76-28.95,8.2-42,15.8-5.73,3.32-11.22,7.91-14.66,13.76-.56.09-1.11.19-1.66.31.41-.53.82-1.07,1.24-1.6.28-.34-.15-.8-.48-.49a153.78,153.78,0,0,0-18,19.34c-5.2,6.68-10,13.69-13.49,21.53a74.83,74.83,0,0,0-4.34,45.21,72.44,72.44,0,0,0,3.65,12c.81,2,1.68,4,2.65,5.91"/></g><g id="head_mono_Long-Bangs" data-name="head mono Long-Bangs"><path id="_-Background-2" data-name=" -Background-2" class="cls-1" d="M207.7,56.13c-3.7-13.4-17.9-19.2-30.6-20.1-34.5-3.6-69.6,15.6-84.9,46.8-12.2,23.7-12.6,48.6,13.7,62.1q2.1,1.2,4.5,2.4a34.3,34.3,0,0,0,4.2,3.4c14.3,9.4,31.9,13.5,49,12.6,25.2-.5,34.2-17.6,39.7-39.5,5.7-21.7,8.9-45.4,4.4-67.7Z"/><path id="_-Ink-2" data-name=" -Ink-2" class="cls-2" d="M224.2,182.13c-1.2-3.6-2.6-7-4-10.5a30.39,30.39,0,0,1-.5-5.3c-.2-6.3,1-12.7,2.3-18.8,2.7-12.5,5.5-24.8,7-37.5,2.6-22.7,1-46.4-9.3-67.1-9-18-24.1-32.7-43.7-38.2a89.35,89.35,0,0,0-17.8-2.9l-2.2-.3A112.79,112.79,0,0,0,130.7.23c-14,.9-27.9,4.9-39.5,12.9a59.28,59.28,0,0,0-24,33c-4,14.3-3.7,29.7-10.7,43.1-2.1,3.9-4.5,7.7-6.8,11.5-6.1,6.8-12.7,14.3-14.1,23.7-1.8,11.5,4.9,21.3,11.1,30.3,5.7,8.1,13.4,19.4,7.5,29.4-2.8,4.7-7.2,8.3-10.5,12.6a42.71,42.71,0,0,0-7.5,15.1,32.07,32.07,0,0,0,6.8,29.1A34.84,34.84,0,0,0,56.3,250c5.2,2.2,10.2,4.3,14.5,8.1a47.61,47.61,0,0,1,5.4,5.6,40.65,40.65,0,0,0,5.5,6.9c2.3,2.3,6.7-.9,4.6-3.6-.2-.2-.3-.4-.5-.6-1.5-2-3.1-4-4.7-5.9a33,33,0,0,1-4.3-25.8,31.25,31.25,0,0,1,2.6-6.6c.2.6.5,1.2.7,1.8a34.58,34.58,0,0,0,4.3,7.3,19.28,19.28,0,0,0,.8,4.7c2.8,9.5,12.4,14.2,20.9,17.8a25.54,25.54,0,0,0,2.5,1c2.2.9,4.6-2.3,3.2-4.2-.4-.5-.7-1-1.1-1.5a31.43,31.43,0,0,1-4.91-21.12c1.1-7.9,5.8-14.4,10.4-20.6s9.4-12.4,11.4-19.9c2.2-8.3.2-16.5-3.2-24.1-3.2-7-7.4-13.4-10.9-20.1,1.2,1.2,2.5,2.4,3.7,3.5a22.92,22.92,0,0,0,4.6,3.6,1.26,1.26,0,0,0,1.5-2,39.85,39.85,0,0,0-4.5-3.7c-1.4-1.2-2.8-2.4-4.1-3.7-1.6-1.6-3.2-3.2-4.7-4.9a79.61,79.61,0,0,1-3-9.4,50.25,50.25,0,0,1-2-13.4c.1-4.6,2.5-7.8,5.6-10.9,1.3-1.3,2.7-2.6,4.1-3.9,2.9-2.1,5.6-4.5,8.3-6.9,4.7-4.2,9.3-8.7,13.6-13.2,1.2-1.2,2.3-2.5,3.5-3.7,4-4.1,7.8-8.4,11.4-12.8a53.59,53.59,0,0,0,10.2-5l-4.2,4.2a84.46,84.46,0,0,1-10,8.9.38.38,0,0,0,.3.7h0a40.16,40.16,0,0,0,13-4.9,61.35,61.35,0,0,0,11.1-9.3,40.13,40.13,0,0,0,5.4-3.1c.1-.1.2-.1.3-.2-1.7,5.3-4.1,11.2-9.3,13.1-.2.1-.2.3,0,.3a16,16,0,0,0,10.7-5.1,63.73,63.73,0,0,0,6.4-5.2,73.45,73.45,0,0,0,5.6-5.7c-2.5,4.9-5.3,9.7-8,14.4-.1.3.2.6.4.4a45.45,45.45,0,0,0,13.7-14.9l1.5-2.7-1.2,4.2c-.8,2.5-1.6,5-2.3,7.6a28.29,28.29,0,0,1-1.5,4,10,10,0,0,0-1,2.9.09.09,0,0,0,.1.1h0c2.3-.6,4.4-3.2,6.1-4.8a35.64,35.64,0,0,0,2.6-2.9c.1,6,.2,12.1.1,18.1-.2,11.1-1,22.3-1.9,33.3-.8,9.8-1.4,20.1-6.9,28.6-4.2,6.6-11.1,11.2-18.6,13.4a15,15,0,0,1-2,.5c-10.8,2.6-21.6-.3-31.1-5.5a2.56,2.56,0,0,0-2.6,4.4,47.44,47.44,0,0,0,35.2,5.8c-.4,13.8,6.5,27,13.2,38.7,3.8,6.6,7.6,13.1,10.3,20.2a67.86,67.86,0,0,1,4.3,18.8,102.37,102.37,0,0,1-1.1,22.8c-.1.4-.1.8-.2,1.2-.2,1.6,1.2,3,2.8,2.1,7-3.7,10-11.5,11.8-18.7a131.75,131.75,0,0,0,3.5-20.6,71.61,71.61,0,0,1,2.3,8,4.86,4.86,0,0,1,.2,1.2c.5,2.3,3.9,2.1,4.5,0l.3-1.2a96.15,96.15,0,0,0,2.1-35.4,60.47,60.47,0,0,0-3.4-18.4"/></g><g id="head_mono_Medium-Bangs-3" data-name="head mono Medium-Bangs-3"><path id="_-Background-3" data-name=" -Background-3" class="cls-1" d="M153.9,13.83c19.9,0,44.8,22.7,52.1,32.3,6.1,8.1,5.3,49.9,5.3,74.7,0,5.2-2.3,15-3.2,20-3.1,18.2-16.7,33.4-43.6,33.4-21.9,0-38.7-6.9-55-24.7-3.7-4-21.9,10.4-25.6,5.2-9.7,0-17.8-90.6,1.2-117.8S134,13.83,153.9,13.83Z"/><path id="_-Ink-3" data-name=" -Ink-3" class="cls-2" d="M94.1,20.23c11.5-10.5,26.8-15.5,42.2-15.1a78.12,78.12,0,0,1,23.5,4.3,63.52,63.52,0,0,1,10.9,5,21.92,21.92,0,0,1,3.5,2.4l.3.2h0a23.61,23.61,0,0,1,8.1,5.3,35.63,35.63,0,0,1,14.5,1.6A34.56,34.56,0,0,1,214,35.33c5,6.3,6.6,14,6,22l-.1,1.3c-.6,7-1.6,16-7.4,20.6a4,4,0,0,1-1.4.8,81.69,81.69,0,0,1,8.6,20.5c6.9,27.2,1.6,55.6-6.8,81.8-.7,2.2-4,3.6-5.6,1.5-3-3.8-7.3-6.7-12.1-7.2-3-.3-6,.3-8.8-1.1a8,8,0,0,1-3-2.5,38.56,38.56,0,0,1-15,2.5c-8.4-.3-17.3-3.2-23.1-9.6a3.39,3.39,0,0,1-.9-3.2,16.63,16.63,0,0,1,2.2-.6c7.3,4.3,15.4,7.2,24,7.4,5,.1,9.9-.6,13.9-3.7a16.66,16.66,0,0,0,2.4-2.2c8.5-5.5,14.5-14.7,17.3-24.6,2.6-9.2,2.3-18.9,1.4-28.4l-.5-5c-.7-7.3-1.3-14.7-1.5-22.1h.1c1.8-.1,1.8-2.9,0-2.8-4.7.3-9.3-.5-13.9-.1a23.4,23.4,0,0,0-.8-6.5c-.4-1.2-2.5-1.4-2.7,0a37.53,37.53,0,0,0-.4,5.8c-7-.1-13.9-.7-20.9-.4-1.3-1.4-1.7-3.8-2.3-5.5-.1-.2-.2-.5-.3-.7a36.12,36.12,0,0,1-2.3,7.1h-1.7c-9.7,0-19.6.3-29,2.3a3.71,3.71,0,0,1-1.2-2.2,77.54,77.54,0,0,0-3.4-15.2l-.2-.7c0-.1,0-.1-.1-.2a36.6,36.6,0,0,1-4.5,5.8,28.33,28.33,0,0,1-3.1,3l-3.1,3.4c0,.2.1.4.1.6a33.44,33.44,0,0,1-3.5,19.4l-.1.4a11.42,11.42,0,0,1-1.7,5,12.69,12.69,0,0,1,2.7,4.8c.5,1.6-1.8,3-2.9,1.7a12.47,12.47,0,0,0-3.1-2.6.37.37,0,0,1-.3.1c-3.1-1.7-8.5-1.2-11.6.4-3.9,2-5.4,6.2-5,10.5.4,4.1,2.2,8.8,5.6,10.9a5.2,5.2,0,0,0,4.5.6,5,5,0,0,0,1.5-.8l.3-.2a5.24,5.24,0,0,1,3.4-1.5,2.54,2.54,0,0,1,3.2,1.6v.1a6.81,6.81,0,0,1,.6,2.7,5.24,5.24,0,0,1-1.4,3.1l-.4.4c13.7,14.8,15.4,37.9,8.4,56.4a22.9,22.9,0,0,1-1,2.4c-1.2,2.7-5.7,1.9-6.3-.8l-.6-2.4c-.4-1.5-.8-2.9-1.3-4.4l-.2-.5-1.2-3.6v-.1c0-.1,0-.1-.1-.2l-.7,1.6h0l-2.2,4.7c-1,2.2-4.2,1-4.3-1.1v-1.3a39.85,39.85,0,0,0-1.4-8.4l-.3.4c-4.2,5.2-9.2,10.1-15.9,11.3-1.7.3-3.6-1.5-2.5-3.2.5-.7.9-1.4,1.4-2.2-.4-.2-.7-.4-1.1-.6a21.23,21.23,0,0,1-6.5-5.8c-3.8-5-5.1-11.2-5.4-17.3a58.58,58.58,0,0,1,2-19.5,51.88,51.88,0,0,1,3-7.8,1.42,1.42,0,0,1-.2-.7,108,108,0,0,1-3.2-11,104,104,0,0,1-2.8-22.9,108.82,108.82,0,0,1,7.2-40.7C75.7,42.63,83.5,29.83,94.1,20.23ZM87.7,140.91a1.39,1.39,0,0,0-2.4,1.4v.1c1.5,2.4,2.2,5.1,3.1,7.7.6,1.7,3.3,1,2.7-.7l-.2-.6A34.54,34.54,0,0,0,87.7,140.91Zm8.3-28.6.6-.3c2-1,3.7-1.6,6.1-.8,3.2,1.1,6.5,4.6,4.4,8.1a3.3,3.3,0,0,1-3.6,1.5c-2.4-.5-3-2.7-4.3-4.5L99,116c-.7-1.1-1.7-2.6-2.9-3-.31-.1-.5-.58-.1-.68Zm1.7-72.8.2-.2c1.4-1.2-.6-3.2-2-2-6.2,5.5-8.3,14-11.5,21.3-.7,1.6,1.7,3.1,2.4,1.4C89.9,53.11,91.9,44.81,97.7,39.51Zm74.2-2.4c-1.6-.7-3,1.6-1.5,2.4h.1c5.4,2.5,7.8,8,10,13.2.7,1.7,3.1.2,2.4-1.4l-.4-.9c-2.4-5.28-5.1-10.78-10.6-13.28Zm8.5-3.4c-1.7-.6-2.4,2.1-.7,2.7,4.6,1.6,7.8,5.1,10.5,9,1,1.5,3.4.1,2.4-1.4-3.2-4.48-6.9-8.38-12.2-10.28Z"/></g><g id="face_Smile-LOL" data-name="face/Smile-LOL"><path id="_-Ink-2-2" data-name="ðŸ–-Ink" class="cls-2" d="M171.27,138.66c4.6,0,11.6-.2,16.2.1,1.3.1,2,2,2.1,2.9.9,8.4-5.8,15.1-13.2,17.7-6.9,2.4-16,2.9-22.1-1.6a18.8,18.8,0,0,1-6-7.7,21.48,21.48,0,0,1-1.5-5.1c-.2-1.3-.6-3.1-.1-4.4.7-1.8,2.5-1.7,4.2-1.7,2.2,0,4.4-.1,6.6-.1C162,138.66,166.67,138.66,171.27,138.66Zm12.9,2.5h0c-2.1.2-25.1.4-28.7.5h-1.7c-.4,1.2.6,3.7,1.7,4.2s10.4.9,15.9.6c3.7-.2,13.5-2.4,13.5-3.4s-.4-2-.7-1.9Zm-12-21.6c-.7-.5-.2-2.3,1.4-2,14.4,2.5,6.9,27.2-11.4,13.6-2.2-1.8.5-5.6,2.8-4.1,2.5,1.9,7.7,6.2,11.3,2.5C179.37,125.26,175.07,121.26,172.17,119.56Zm-27.9-16a10.72,10.72,0,0,1,11.4,6.8,2.82,2.82,0,0,1-1.3,3.1,2.87,2.87,0,0,1-3.3-.4c-1.3-1-1.9-2.7-3.3-3.6a6.08,6.08,0,0,0-4.2-.6c-3.3.5-5.8,2.7-8.8,3.9-.4.2-.7-.4-.5-.7C136,107.86,139.77,104.26,144.27,103.56Zm45.5-.2c3.8-.3,8.2,1.3,9.4,5.2a.22.22,0,0,1-.2.2,13.72,13.72,0,0,0-7.2-.9c-1.6.3-4.6,1.4-4.8,3.2-.2,2.8-3.4,3.4-5,1.3s-.2-4.8,1.5-6.3A10.48,10.48,0,0,1,189.77,103.36Zm-36-15.7a2.51,2.51,0,0,1,0,3.5c-1.9,1.6-4.1,1-6.4,1.1a27.22,27.22,0,0,0-5.6.9c-4,1.1-7.3,3.2-10.7,5.6-.5.3-.9-.3-.7-.7a21.68,21.68,0,0,1,9.7-9,25.87,25.87,0,0,1,6.6-2.3l.7-.1C149.57,86.26,152.27,86,153.77,87.66Zm30.5-2.6.5.1c5.8,1.2,13.4,3.7,16.2,9.4.1.8,0,1-.1,1.1h0a.69.69,0,0,1-.5.3.37.37,0,0,1-.3-.1,11.86,11.86,0,0,1-3.2-1.3l-1.1-.5a25.44,25.44,0,0,0-3.8-1.6,42.68,42.68,0,0,0-8.6-1.9,3.63,3.63,0,0,1-1.7-.7,2.38,2.38,0,0,1-1-1.5,2.82,2.82,0,0,1,.3-2.2,2.76,2.76,0,0,1,1.4-1.2A11.48,11.48,0,0,1,184.27,85.06Z"/></g></svg>