<svg id="Layer_1" data-name="Layer 1" xmlns="http://www.w3.org/2000/svg" viewBox="0 0 257.58 410.71"><defs><style>.cls-1{fill:#fff;}.cls-1,.cls-2{fill-rule:evenodd;}</style></defs><g id="body_mono_Turtleneck" data-name="body/mono/Turtleneck"><path id="_-Background" data-name="ðŸŽ¨-Background" class="cls-1" d="M75.86,201.31c15.7-3.6,25-3.6,30.29-9.16s6.22-15.11,8.41-22.49c1.2-4.06,13-7.75,24.45-7.18,9.33.48,18.73,4.57,19.46,7.18,1.62,5.82,4.22,30.75,12.77,34.58s26.81.34,32,9.48,22.36,46.43,22.36,55.11q0,8.69-167.62,6Q60.15,204.9,75.86,201.31Z"/><path id="_-Ink" data-name="ðŸ–-Ink" class="cls-2" d="M7.41,403.64c.24.18,0,.18,0,0m-.93-.72a.1.1,0,0,0,0,0c-.19,0-.31-.21,0,0m248.07-23q-1.59-7-3.16-14l-6.6-29.33q-6.45-28.68-12.91-57.37c-2.19-9.72-4.68-19.36-6.94-29.06-2-8.5-3.6-17.21-7-25.26-3.46-8.21-9.53-15.08-17.58-18.56a63.7,63.7,0,0,0-21.79-4.92,3.21,3.21,0,0,0-.2-4.35c-1.68-1.77-2-4.39-2.47-6.72a23,23,0,0,0-3.1-8.51,2.66,2.66,0,0,0-2.94-1.24c-.75.17-1.48.37-2.2.59a4.89,4.89,0,0,1-.67-.81,9.41,9.41,0,0,0-1.41-2.35,1.24,1.24,0,0,0-1.47-.2c-1.39.74-1.51,3-1.21,4.34a7.1,7.1,0,0,0,.22.79l-.29.14h0c-1.83-.36-4.15.4-5.93.58q-3.1.31-6.22.42a93.29,93.29,0,0,1-12.73-.43c-4.13-.43-8.22-1.11-12.29-1.88-2.54-.48-5.63-.88-7.86-2.47q0-1.19-.06-2.37a6.88,6.88,0,0,0-.67-3.65,0,0,0,0,0,0,0,4.7,4.7,0,0,0-2,2.23,3.82,3.82,0,0,0-2.52.14,7.93,7.93,0,0,0-2.77,1.9,8.47,8.47,0,0,0-2,4.56,10.07,10.07,0,0,1-.91,3c-.11.18-.22.37-.34.54l-.26.29-.42.42c-.08.09-.49.43-.43.38a15.08,15.08,0,0,1-5.48,2.51c-4.64,1.38-9.4,2.29-14,3.77a130.45,130.45,0,0,0-14.83,5.79C52.26,207.41,35.43,221.1,24,238.94c-13.37,20.77-18.29,46-20.73,70.46C.55,336.21.74,363.33.16,390.25l-.22,10.1c-.07,3.29-.27,6.84,2.54,9,2.51,2,5.56,1.36,8.34.47a69.27,69.27,0,0,1,9.06-2.24,64.64,64.64,0,0,1,17.57-.54c3.13.31,7,1.52,9.54-1a8.63,8.63,0,0,0,1.89-3.3c.54-1.51,1.17-3,1.8-4.47.53-1.21,1-2.44,1.56-3.66l2.52,11.45a1.64,1.64,0,0,0,2.75.89c1.49.83,3.44.81,5.14,1,2.71.33,5.45.44,8.19.54,5.35.19,10.7.29,16.06.36,10.92.15,21.84.1,32.75.05,21.63-.1,43.26-.56,64.87-1.14,6.09-.17,12.18-.31,18.27-.47q4.56-.1,9.12-.24a12.62,12.62,0,0,0,2.7-.32h0a3.54,3.54,0,0,0,1.43.78,3.81,3.81,0,0,0,4.63-2.74,7.24,7.24,0,0,0,.41-2.68c.1-.68.21-1.37.31-2.05a18.29,18.29,0,0,0,11.42,2.55c4.52-.31,9-1.17,13.53-1.81,4.21-.6,11-.41,11.24-6.45.07-2.21-.83-4.69-1.31-6.82-.57-2.55-1.15-5.1-1.72-7.65"/></g><g id="head_mono_Long-Bangs" data-name="head mono Long-Bangs"><path id="_-Background-2" data-name=" -Background-2" class="cls-1" d="M207.7,56.13c-3.7-13.4-17.9-19.2-30.6-20.1-34.5-3.6-69.6,15.6-84.9,46.8-12.2,23.7-12.6,48.6,13.7,62.1q2.1,1.2,4.5,2.4a34.3,34.3,0,0,0,4.2,3.4c14.3,9.4,31.9,13.5,49,12.6,25.2-.5,34.2-17.6,39.7-39.5,5.7-21.7,8.9-45.4,4.4-67.7Z"/><path id="_-Ink-2" data-name=" -Ink-2" class="cls-2" d="M224.2,182.13c-1.2-3.6-2.6-7-4-10.5a30.39,30.39,0,0,1-.5-5.3c-.2-6.3,1-12.7,2.3-18.8,2.7-12.5,5.5-24.8,7-37.5,2.6-22.7,1-46.4-9.3-67.1-9-18-24.1-32.7-43.7-38.2a89.35,89.35,0,0,0-17.8-2.9l-2.2-.3A112.79,112.79,0,0,0,130.7.23c-14,.9-27.9,4.9-39.5,12.9a59.28,59.28,0,0,0-24,33c-4,14.3-3.7,29.7-10.7,43.1-2.1,3.9-4.5,7.7-6.8,11.5-6.1,6.8-12.7,14.3-14.1,23.7-1.8,11.5,4.9,21.3,11.1,30.3,5.7,8.1,13.4,19.4,7.5,29.4-2.8,4.7-7.2,8.3-10.5,12.6a42.71,42.71,0,0,0-7.5,15.1,32.07,32.07,0,0,0,6.8,29.1A34.84,34.84,0,0,0,56.3,250c5.2,2.2,10.2,4.3,14.5,8.1a47.61,47.61,0,0,1,5.4,5.6,40.65,40.65,0,0,0,5.5,6.9c2.3,2.3,6.7-.9,4.6-3.6-.2-.2-.3-.4-.5-.6-1.5-2-3.1-4-4.7-5.9a33,33,0,0,1-4.3-25.8,31.25,31.25,0,0,1,2.6-6.6c.2.6.5,1.2.7,1.8a34.58,34.58,0,0,0,4.3,7.3,19.28,19.28,0,0,0,.8,4.7c2.8,9.5,12.4,14.2,20.9,17.8a25.54,25.54,0,0,0,2.5,1c2.2.9,4.6-2.3,3.2-4.2-.4-.5-.7-1-1.1-1.5a31.43,31.43,0,0,1-4.91-21.12c1.1-7.9,5.8-14.4,10.4-20.6s9.4-12.4,11.4-19.9c2.2-8.3.2-16.5-3.2-24.1-3.2-7-7.4-13.4-10.9-20.1,1.2,1.2,2.5,2.4,3.7,3.5a22.92,22.92,0,0,0,4.6,3.6,1.26,1.26,0,0,0,1.5-2,39.85,39.85,0,0,0-4.5-3.7c-1.4-1.2-2.8-2.4-4.1-3.7-1.6-1.6-3.2-3.2-4.7-4.9a79.61,79.61,0,0,1-3-9.4,50.25,50.25,0,0,1-2-13.4c.1-4.6,2.5-7.8,5.6-10.9,1.3-1.3,2.7-2.6,4.1-3.9,2.9-2.1,5.6-4.5,8.3-6.9,4.7-4.2,9.3-8.7,13.6-13.2,1.2-1.2,2.3-2.5,3.5-3.7,4-4.1,7.8-8.4,11.4-12.8a53.59,53.59,0,0,0,10.2-5l-4.2,4.2a84.46,84.46,0,0,1-10,8.9.38.38,0,0,0,.3.7h0a40.16,40.16,0,0,0,13-4.9,61.35,61.35,0,0,0,11.1-9.3,40.13,40.13,0,0,0,5.4-3.1c.1-.1.2-.1.3-.2-1.7,5.3-4.1,11.2-9.3,13.1-.2.1-.2.3,0,.3a16,16,0,0,0,10.7-5.1,63.73,63.73,0,0,0,6.4-5.2,73.45,73.45,0,0,0,5.6-5.7c-2.5,4.9-5.3,9.7-8,14.4-.1.3.2.6.4.4a45.45,45.45,0,0,0,13.7-14.9l1.5-2.7-1.2,4.2c-.8,2.5-1.6,5-2.3,7.6a28.29,28.29,0,0,1-1.5,4,10,10,0,0,0-1,2.9.09.09,0,0,0,.1.1h0c2.3-.6,4.4-3.2,6.1-4.8a35.64,35.64,0,0,0,2.6-2.9c.1,6,.2,12.1.1,18.1-.2,11.1-1,22.3-1.9,33.3-.8,9.8-1.4,20.1-6.9,28.6-4.2,6.6-11.1,11.2-18.6,13.4a15,15,0,0,1-2,.5c-10.8,2.6-21.6-.3-31.1-5.5a2.56,2.56,0,0,0-2.6,4.4,47.44,47.44,0,0,0,35.2,5.8c-.4,13.8,6.5,27,13.2,38.7,3.8,6.6,7.6,13.1,10.3,20.2a67.86,67.86,0,0,1,4.3,18.8,102.37,102.37,0,0,1-1.1,22.8c-.1.4-.1.8-.2,1.2-.2,1.6,1.2,3,2.8,2.1,7-3.7,10-11.5,11.8-18.7a131.75,131.75,0,0,0,3.5-20.6,71.61,71.61,0,0,1,2.3,8,4.86,4.86,0,0,1,.2,1.2c.5,2.3,3.9,2.1,4.5,0l.3-1.2a96.15,96.15,0,0,0,2.1-35.4,60.47,60.47,0,0,0-3.4-18.4"/></g><g id="head_mono_Medium-Bangs-3" data-name="head mono Medium-Bangs-3"><path id="_-Background-3" data-name=" -Background-3" class="cls-1" d="M153.9,13.83c19.9,0,44.8,22.7,52.1,32.3,6.1,8.1,5.3,49.9,5.3,74.7,0,5.2-2.3,15-3.2,20-3.1,18.2-16.7,33.4-43.6,33.4-21.9,0-38.7-6.9-55-24.7-3.7-4-21.9,10.4-25.6,5.2-9.7,0-17.8-90.6,1.2-117.8S134,13.83,153.9,13.83Z"/><path id="_-Ink-3" data-name=" -Ink-3" class="cls-2" d="M94.1,20.23c11.5-10.5,26.8-15.5,42.2-15.1a78.12,78.12,0,0,1,23.5,4.3,63.52,63.52,0,0,1,10.9,5,21.92,21.92,0,0,1,3.5,2.4l.3.2h0a23.61,23.61,0,0,1,8.1,5.3,35.63,35.63,0,0,1,14.5,1.6A34.56,34.56,0,0,1,214,35.33c5,6.3,6.6,14,6,22l-.1,1.3c-.6,7-1.6,16-7.4,20.6a4,4,0,0,1-1.4.8,81.69,81.69,0,0,1,8.6,20.5c6.9,27.2,1.6,55.6-6.8,81.8-.7,2.2-4,3.6-5.6,1.5-3-3.8-7.3-6.7-12.1-7.2-3-.3-6,.3-8.8-1.1a8,8,0,0,1-3-2.5,38.56,38.56,0,0,1-15,2.5c-8.4-.3-17.3-3.2-23.1-9.6a3.39,3.39,0,0,1-.9-3.2,16.63,16.63,0,0,1,2.2-.6c7.3,4.3,15.4,7.2,24,7.4,5,.1,9.9-.6,13.9-3.7a16.66,16.66,0,0,0,2.4-2.2c8.5-5.5,14.5-14.7,17.3-24.6,2.6-9.2,2.3-18.9,1.4-28.4l-.5-5c-.7-7.3-1.3-14.7-1.5-22.1h.1c1.8-.1,1.8-2.9,0-2.8-4.7.3-9.3-.5-13.9-.1a23.4,23.4,0,0,0-.8-6.5c-.4-1.2-2.5-1.4-2.7,0a37.53,37.53,0,0,0-.4,5.8c-7-.1-13.9-.7-20.9-.4-1.3-1.4-1.7-3.8-2.3-5.5-.1-.2-.2-.5-.3-.7a36.12,36.12,0,0,1-2.3,7.1h-1.7c-9.7,0-19.6.3-29,2.3a3.71,3.71,0,0,1-1.2-2.2,77.54,77.54,0,0,0-3.4-15.2l-.2-.7c0-.1,0-.1-.1-.2a36.6,36.6,0,0,1-4.5,5.8,28.33,28.33,0,0,1-3.1,3l-3.1,3.4c0,.2.1.4.1.6a33.44,33.44,0,0,1-3.5,19.4l-.1.4a11.42,11.42,0,0,1-1.7,5,12.69,12.69,0,0,1,2.7,4.8c.5,1.6-1.8,3-2.9,1.7a12.47,12.47,0,0,0-3.1-2.6.37.37,0,0,1-.3.1c-3.1-1.7-8.5-1.2-11.6.4-3.9,2-5.4,6.2-5,10.5.4,4.1,2.2,8.8,5.6,10.9a5.2,5.2,0,0,0,4.5.6,5,5,0,0,0,1.5-.8l.3-.2a5.24,5.24,0,0,1,3.4-1.5,2.54,2.54,0,0,1,3.2,1.6v.1a6.81,6.81,0,0,1,.6,2.7,5.24,5.24,0,0,1-1.4,3.1l-.4.4c13.7,14.8,15.4,37.9,8.4,56.4a22.9,22.9,0,0,1-1,2.4c-1.2,2.7-5.7,1.9-6.3-.8l-.6-2.4c-.4-1.5-.8-2.9-1.3-4.4l-.2-.5-1.2-3.6v-.1c0-.1,0-.1-.1-.2l-.7,1.6h0l-2.2,4.7c-1,2.2-4.2,1-4.3-1.1v-1.3a39.85,39.85,0,0,0-1.4-8.4l-.3.4c-4.2,5.2-9.2,10.1-15.9,11.3-1.7.3-3.6-1.5-2.5-3.2.5-.7.9-1.4,1.4-2.2-.4-.2-.7-.4-1.1-.6a21.23,21.23,0,0,1-6.5-5.8c-3.8-5-5.1-11.2-5.4-17.3a58.58,58.58,0,0,1,2-19.5,51.88,51.88,0,0,1,3-7.8,1.42,1.42,0,0,1-.2-.7,108,108,0,0,1-3.2-11,104,104,0,0,1-2.8-22.9,108.82,108.82,0,0,1,7.2-40.7C75.7,42.63,83.5,29.83,94.1,20.23ZM87.7,140.91a1.39,1.39,0,0,0-2.4,1.4v.1c1.5,2.4,2.2,5.1,3.1,7.7.6,1.7,3.3,1,2.7-.7l-.2-.6A34.54,34.54,0,0,0,87.7,140.91Zm8.3-28.6.6-.3c2-1,3.7-1.6,6.1-.8,3.2,1.1,6.5,4.6,4.4,8.1a3.3,3.3,0,0,1-3.6,1.5c-2.4-.5-3-2.7-4.3-4.5L99,116c-.7-1.1-1.7-2.6-2.9-3-.31-.1-.5-.58-.1-.68Zm1.7-72.8.2-.2c1.4-1.2-.6-3.2-2-2-6.2,5.5-8.3,14-11.5,21.3-.7,1.6,1.7,3.1,2.4,1.4C89.9,53.11,91.9,44.81,97.7,39.51Zm74.2-2.4c-1.6-.7-3,1.6-1.5,2.4h.1c5.4,2.5,7.8,8,10,13.2.7,1.7,3.1.2,2.4-1.4l-.4-.9c-2.4-5.28-5.1-10.78-10.6-13.28Zm8.5-3.4c-1.7-.6-2.4,2.1-.7,2.7,4.6,1.6,7.8,5.1,10.5,9,1,1.5,3.4.1,2.4-1.4-3.2-4.48-6.9-8.38-12.2-10.28Z"/></g><g id="face_Smile-LOL" data-name="face Smile-LOL"><path id="_-Ink-4" data-name=" -Ink-4" class="cls-2" d="M173.6,121c-.8-.6-.2-2.4,1.5-2.1,15.2,2.6,7.3,28.7-12,14.4-2.3-1.9.5-6,3-4.4,2.7,2.1,8.1,6.6,11.9,2.6C181.1,127,176.6,122.83,173.6,121Zm-19.4-33.6c.9,1,1.2,2.8,0,3.7-2,1.6-4.3,1-6.7,1.1a24.14,24.14,0,0,0-5.9,1c-4.2,1.2-7.7,3.4-11.3,5.9a.51.51,0,0,1-.7-.7,22.89,22.89,0,0,1,10.19-9.52,24.49,24.49,0,0,1,6.9-2.4l.7-.1c2.31-.5,5.21-.88,6.81,1Zm32.2-2.8.6.1c6.2,1.3,14.2,3.9,17.1,9.9.1.9,0,1-.1,1.2h0a1.09,1.09,0,0,1-.5.4c-.1,0-.2-.1-.3-.1a21.85,21.85,0,0,1-3.4-1.3l-1.1-.5c-1.3-.6-2.6-1.2-4-1.7a46.51,46.51,0,0,0-9.1-2,3.57,3.57,0,0,1-1.8-.7,3.07,3.07,0,0,1-1-1.5,2.64,2.64,0,0,1,.3-2.3,3.14,3.14,0,0,1,1.4-1.2,2.49,2.49,0,0,1,1.9-.3Z"/></g><path class="cls-2" d="M172.4,157.23a12.78,12.78,0,0,1-7.5,0,13.88,13.88,0,0,1-6.2-4,9.08,9.08,0,0,1-2.4-6,.87.87,0,0,1,.2-.6.71.71,0,0,1,.6-.3.86.86,0,0,1,.7.1.78.78,0,0,1,.4.4c.3.3.5.7.8,1,2,2.5,4,4.4,7.1,5.1a8.21,8.21,0,0,0,4.9-.4,11.54,11.54,0,0,0,4.3-3,2.25,2.25,0,0,1,1.7-.9,2.76,2.76,0,0,1,1.9.8,3.41,3.41,0,0,1,.9,1.9,3,3,0,0,1-.7,1.9A15.39,15.39,0,0,1,172.4,157.23Z"/><path class="cls-2" d="M148.7,108.83a3.67,3.67,0,0,0-3.4-.3,10,10,0,0,0-3.9,3.9,7.88,7.88,0,0,0-1.3,4.5,1.19,1.19,0,0,1-.3.9.89.89,0,0,1-.7.3,2.18,2.18,0,0,1-.8-.1,1.31,1.31,0,0,1-.8-.6,9.53,9.53,0,0,1,.5-7c1.3-3,3.6-5.6,5.1-6.4a8.27,8.27,0,0,1,8.2,0,14.29,14.29,0,0,1,4.9,5.2c.32.42.62.85.9,1.3a2.4,2.4,0,0,1,.4,2.4,3.29,3.29,0,0,1-1.7,1.8,2.87,2.87,0,0,1-2.4,0,2.73,2.73,0,0,1-1.6-1.7,8.21,8.21,0,0,0-3.1-4.2Z"/><path class="cls-2" d="M197.6,112.23a2.56,2.56,0,0,1-1.9.2,2.66,2.66,0,0,1-1.1-.7,2.48,2.48,0,0,1-.6-1.1,4.68,4.68,0,0,0-1.6-2.7,3.33,3.33,0,0,0-2.6-.7,5.09,5.09,0,0,0-2.8,1.7l-.6.9a4.6,4.6,0,0,1-1.2,1.5,1.09,1.09,0,0,1-.7.3h-.3a3.05,3.05,0,0,1-1.2-2.7,5,5,0,0,1,.9-2.5,9.42,9.42,0,0,1,5.2-3.7,7.66,7.66,0,0,1,6.1,1.3,9.15,9.15,0,0,1,3.6,5.4,2.91,2.91,0,0,1-.1,1.6A2.56,2.56,0,0,1,197.6,112.23Z"/></svg>