<svg id="Layer_1" data-name="Layer 1" xmlns="http://www.w3.org/2000/svg" viewBox="0 0 950 919"><defs><style>.cls-1{fill:#ffd1cc;}.cls-2{fill:#cf5f85;}.cls-3{fill:#f28bb2;}.cls-4{fill:#ee3753;}</style></defs><circle class="cls-1" cx="475" cy="459.5" r="444.74"/><path class="cls-2" d="M486.33,305.22c31.28,1.63,41.94-33.37,110.91-34.91,46.67-1,94.07,27.22,111,70.62C753,456,651.42,701.55,496.67,707.57c-144.06,5.6-251.13-198.35-236.19-326C268,317.27,316.28,278,367.05,273.81,448.89,267,459.65,303.82,486.33,305.22Z"/><path class="cls-3" d="M459.94,296.71c31.28,1.63,41.94-33.37,110.9-34.91,46.68-1,94.08,27.22,111,70.62C726.59,447.52,625,693,470.28,699.06c-144.06,5.6-251.13-198.35-236.19-326,7.53-64.32,55.79-103.58,106.57-107.78C422.5,258.53,433.26,295.31,459.94,296.71Z"/><path class="cls-4" d="M501.48,516.47c-4.47-.35-8.8-1.57-13.12-2.61a18.37,18.37,0,0,1-3.21-1.24,3.16,3.16,0,0,1-2.07-3.86c.27-1.35.89-2.63,1.28-4,.67-2.22,1.54-4.37,2.22-6.59.46-1.5.27-1.75,1.84-1.37,4.48,1.06,8.89,2.4,13.38,3.36,3.83.82,7.72,1.05,11.47-.43a10.79,10.79,0,0,0,6.25-6.72,4.71,4.71,0,0,0-1.31-5.13,15.85,15.85,0,0,0-3.9-3c-3.76-1.82-7.66-3.36-11.52-5a40.92,40.92,0,0,1-11.94-7.21,19.1,19.1,0,0,1-6.45-13,75.6,75.6,0,0,1-.1-8.78c0-.67-.05-1.14-.76-1.14q-7.57,0-15.15,0c-.7,0-1,.47-.94,1.12,0,.31-.07.62-.07.93,0,20.8-.08,41.59-.08,62.39,0,1.75.2,1.73-1.56,1.73-5.19,0-10.38-.21-15.57-.21-1.48,0-1.52.23-1.52-1.27,0-21,.12-42.08.12-63.12,0-1.62-.09-1.74-1.75-1.74-6.22,0-12.45.29-18.68.29-1.38,0-1.41-.22-1.42-1.55,0-4.33.25-8.66.22-13,0-1,0-1.54,1.05-1.53,20,0,40,.19,60,.17,1,0,1.38.36,1.35,1.34-.06,1.9.14,3.74.14,5.86.48-.38.59-.57.89-.82a35.61,35.61,0,0,1,19.9-8.07,48.71,48.71,0,0,1,22.91,3.44c2.84,1.16,2.74.37,2,3.17-.94,3.51-2.39,6.88-3.31,10.39-.24.94-.52,1.05-1.37.92q-7.59-1.11-15.17-2.29a13.33,13.33,0,0,0-8.49,1.71c-4.92,2.59-5.33,8-.63,10.93a69.41,69.41,0,0,0,9.09,4.94c4.54,2,9.32,3.46,13.48,6.21a30.33,30.33,0,0,1,8.15,7.7c.16.22,0,.66.22.87,0,.05,0-.16.2-.08v-1.15c0-14.53.21-29.07.21-43.6,0-1.6,0-1.78,1.62-1.78,5.26,0,10.52.42,15.78.42,1.3,0,1.27-.17,1.27,1.09,0,5.57.12,11.14.09,16.71,0,4.77-.14,9.54-.13,14.31,0,5.12-.06,10.25.14,15.36a35.67,35.67,0,0,0,2.42,12c1.93,4.77,5.65,7.11,10.67,7.49a13.29,13.29,0,0,0,9.8-2.7,13.51,13.51,0,0,0,4.43-7.16,40.58,40.58,0,0,0,1.32-11.07c0-14.88,0-29.76,0-44.64,0-1.57.14-1.79,1.68-1.79,5.26,0,10.52.35,15.78.35,1.43,0,1.48-.09,1.48,1.29,0,13.88.19,27.75,0,41.63a81.66,81.66,0,0,1-1.47,16c-1.27,6.05-3.65,11.47-8.26,15.7a28.39,28.39,0,0,1-15.36,7.06,49.35,49.35,0,0,1-25-2.37,21.27,21.27,0,0,1-11.45-10.37c-1.31-2.5-2.17-5.25-3.25-7.86-.13-.32-.13-.71-.32-1.27-.3,1.15-.34,2.14-.59,3.05-2.22,8-7.4,13.46-15.11,16.57a39.63,39.63,0,0,1-10.8,2.81c-.17,0-.33.29-.5.34C508.54,516.58,505,516.47,501.48,516.47Z"/><path class="cls-4" d="M334.36,426.64a91.39,91.39,0,0,1,35.13,4.83c-1.09.07-2.15.38-3.23.39-6.12,0-12.24,0-18.36-.06-2.31,0-4.62-.27-6.94-.33a6.19,6.19,0,0,1-4.19-2.05c-.84-.82-1.54-1.77-2.35-2.63C334.42,426.66,334.36,426.78,334.36,426.64Z"/><path class="cls-4" d="M376.06,501.51c2.62-8.49,5.44-16.93,8.05-25.42,4.23-13.75,8.18-27.59,12.38-41.35a1.76,1.76,0,0,1,1.92-1.44c7.26,0,14.53-.06,21.8-.1,1,0,1.39.55,1.67,1.48,4.54,14.85,8.88,29.76,13.44,44.6,3.62,11.77,7.53,23.46,11.14,35.22.13.42,0,.8.12,1.29a4.32,4.32,0,0,1-.62.11c-6,.06-12,0-17.95,0-1,0-1.43-.18-1.68-1-1.89-6.47-3.68-13-5.57-19.45-.23-.8-.59-1.18-1.45-1.18-6.85,0-13.7.18-20.55.14-.91,0-1.27.25-1.5,1.09q-2.56,9.63-5.15,19.24a1.43,1.43,0,0,1-1.6,1.26c-14.29,0-28.58.09-42.87.12-.89,0-1-.39-1.12-1.36-.5-5.36-1.33-10.7-1.87-16.06-.53-5.09-1.27-10.15-1.79-15.24-.44-4.4-.63-8.83-1.07-13.23s-1.14-8.84-1.59-13.27-.54-8.77-1-13.13c-.3-3-.78-5.9-1.08-8.86-.13-1.29-.05-1.15,1.3-1.15,10.1,0,20.2-.15,30.31-.15,1.66,0,3.32-.12,5-.12,1.29,0,1.62.17,1.61,1.44,0,5-.32,10-.33,14.94,0,17,.1,34,.09,51,0,.2,0,.37,0,.57C376.13,501.49,376,501.52,376.06,501.51Zm32.76-51.57c-.1,0-.39,0-.49,0-2.6,9.88-4.91,19.83-7.53,29.78a2.87,2.87,0,0,0,.78,0c4.84,0,9.69-.11,14.53-.09.9,0,1.05-.05.81-.88-2.2-7.75-4.14-15.58-6.32-23.33C410.09,453.52,409.33,451.76,408.82,449.94Z"/></svg>